<?xml version="1.0" encoding="utf-8"?>
<!-- Generator: Adobe Illustrator 24.1.2, SVG Export Plug-In . SVG Version: 6.00 Build 0)  -->
<svg version="1.1" id="图层_1" xmlns="http://www.w3.org/2000/svg" xmlns:xlink="http://www.w3.org/1999/xlink" x="0px" y="0px"
	 viewBox="0 0 200 200" style="enable-background:new 0 0 200 200;" xml:space="preserve">
<style type="text/css">
	.st0{fill:#00BFD8;}
	.st1{fill:#FFFFFF;}
</style>
<path class="st0" d="M164.6,181.1H35.5c-9,0-16.4-7.4-16.4-16.4V35.6c0-9,7.4-16.4,16.4-16.4h129.1c9,0,16.4,7.4,16.4,16.4v129.1
	C181,173.7,173.7,181.1,164.6,181.1L164.6,181.1z"/>
<path class="st1" d="M52.1,56.6h32v32h-32V56.6z M116.1,56.6h32v32h-32C116.1,88.6,116.1,56.6,116.1,56.6z M84.1,88.6v17.8H69v47.9
	h13.9v-16h34.3v16h13.9v-47.9H116V88.6H84.1z"/>
</svg>
