<?xml version="1.0" encoding="utf-8"?>
<!-- Generator: Adobe Illustrator 24.1.2, SVG Export Plug-In . SVG Version: 6.00 Build 0)  -->
<svg version="1.1" id="OBJECTS" xmlns="http://www.w3.org/2000/svg" xmlns:xlink="http://www.w3.org/1999/xlink" x="0px" y="0px"
	 viewBox="0 0 223.8 187.9" style="enable-background:new 0 0 223.8 187.9;" xml:space="preserve">
<style type="text/css">
	.st0{fill:#DFEAF7;}
	.st1{fill:#3D71F2;}
	.st2{fill:#FFB0B3;}
	.st3{fill:#002D53;}
	.st4{fill:#FF7A72;}
	.st5{fill:#FFB3AE;}
	.st6{fill:#6190E5;}
	.st7{fill:#F1F3F6;}
	.st8{fill:#D18C7E;}
	.st9{fill:#BC7F72;}
	.st10{fill:#FFFFFF;}
</style>
<g>
	<g>
		<path class="st0" d="M200.3,141.7c-2.7,5.6-7.3,10.6-13.2,14.8c-29.5,21.2-93,25.3-131.1,0c-6.3-4.2-11.9-9.1-16.5-14.9
			C27.1,126.1,19.8,102.4,21.6,80c0.7-9.2,1.8-20.8,10.2-30.9c17-20.3,48.4-15.7,50-15.5c22,3.6,22.4,16.7,54.2,36.8
			c35.4,22.4,55.5,19.3,64.2,39.3C204.2,119,205.2,131.6,200.3,141.7z"/>
	</g>
	<g>
		<g>
			<g>
				<path class="st1" d="M87,148.9l7.4-33.1c1.9-8.3,7.4-15.3,15.1-19l21.8-10.4l22.3,9.3c9,3.7,15.5,11.7,17.5,21.2l6.7,32H87z"/>
			</g>
			<g>
				<path class="st2" d="M117.4,138.3c0,0,5.8-7.6,8.6-7.1s8,9.6,8,9.6h23.1l0.6-5.8c0,0,14.8,2.7,20,14H120L117.4,138.3z"/>
			</g>
			<g>
				<path class="st3" d="M157.7,135.7c-0.4,0-0.7-0.3-0.7-0.6l-2-19.7c0-0.4,0.2-0.7,0.6-0.8c0.4,0,0.7,0.2,0.8,0.6l2,19.7
					C158.5,135.3,158.2,135.6,157.7,135.7C157.8,135.7,157.8,135.7,157.7,135.7z"/>
			</g>
		</g>
		<g>
			<g>
				<path class="st2" d="M120.9,83.1v15.3c0,0-1.1,9.5,5,8.6c6.1-0.9,12.5-17.7,12.5-17.7l-1-14.9L120.9,83.1z"/>
			</g>
			<g>
				<polygon class="st4" points="138.2,86 120.9,97.1 120.9,83.1 137.4,74.5 				"/>
			</g>
			<g>
				
					<ellipse transform="matrix(0.361 -0.9326 0.9326 0.361 16.8012 157.6817)" class="st5" cx="123.5" cy="66.6" rx="22.8" ry="15.9"/>
			</g>
			<g>
				<path class="st3" d="M140.3,63.8c0,0-8.5-4.6-13.1-15.4c0,0-21.7,17-26.8,6.6c-5.1-10.4,7.5-18.6,9-11.5c0,0,11.7-18.9,30.9-6.3
					S140.3,63.8,140.3,63.8z"/>
			</g>
			<g>
				<path class="st5" d="M143.5,68.9c-1.2,3.4-3.9,5.6-5.9,4.9s-2.6-4.1-1.4-7.5c1.2-3.4,3.9-5.6,5.9-4.9
					C144.1,62.1,144.7,65.4,143.5,68.9z"/>
			</g>
		</g>
	</g>
	<g>
		<g>
			<g>
				<rect x="47.6" y="120.8" class="st6" width="20.7" height="28.1"/>
			</g>
			<g>
				<path class="st6" d="M39.7,135c0,2.4,2,4.4,4.4,4.4c1.4,0,2.6-0.6,3.4-1.6v6c-1.1,0.4-2.2,0.6-3.4,0.6c-5.2,0-9.4-4.2-9.4-9.4
					c0-5.2,4.2-9.4,9.4-9.4c1.2,0,2.4,0.2,3.4,0.6v6c-0.8-1-2-1.6-3.4-1.6C41.7,130.5,39.7,132.5,39.7,135z"/>
			</g>
		</g>
		<g>
			<path class="st7" d="M53.4,99.8c2.5-3.9,6.3-7,8.1-11.3c2.6-5.9,1.2-12.7,3.2-18.8c2.8-8.8,11.8-14,17.1-21.6
				c5.7-8.3,6.6-19.7,2.3-28.8c-2-4.2-5.1-7.9-9.3-9.8c-5-2.3-11-1.6-15.7,1.2c-4.7,2.8-8,7.6-9.5,12.9c-3.6,13,3.4,27,0.6,40.1
				c-1.7,7.8-6.6,14.7-8.3,22.5c-1.5,6.8-0.1,14.1,3.4,20.1c1,1.8,3.9,7.3,5.4,3.5c0.6-1.4,0.2-3.2,0.5-4.7
				C51.6,103.1,52.3,101.4,53.4,99.8z"/>
		</g>
	</g>
	<g>
		<g>
			<rect x="36.1" y="148.9" class="st8" width="161.9" height="7.6"/>
		</g>
		<g>
			<path class="st9" d="M187.1,156.5c-29.5,21.2-93,25.3-131.1,0H187.1z"/>
		</g>
	</g>
	<g>
		<g>
			<path class="st10" d="M123.1,145.2c0.5,2-0.8,3.7-2.9,3.7h-48c-2.1,0-4.2-1.6-4.7-3.7l-8.8-35.7c-0.5-2,0.8-3.7,2.9-3.7h48
				c2.1,0,4.2,1.6,4.7,3.7L123.1,145.2z"/>
		</g>
		<g>
			<path class="st0" d="M95.7,127.9c0.5,2.9-1.4,5.3-4.3,5.3c-2.9,0-5.7-2.4-6.3-5.3c-0.5-2.9,1.4-5.3,4.3-5.3
				C92.4,122.6,95.2,125,95.7,127.9z"/>
		</g>
	</g>
</g>
</svg>
