<?xml version="1.0" encoding="utf-8"?>
<!-- Generator: Adobe Illustrator 24.1.2, SVG Export Plug-In . SVG Version: 6.00 Build 0)  -->
<svg version="1.1" id="OBJECTS" xmlns="http://www.w3.org/2000/svg" xmlns:xlink="http://www.w3.org/1999/xlink" x="0px" y="0px"
	 viewBox="0 0 242.7 191.6" style="enable-background:new 0 0 242.7 191.6;" xml:space="preserve">
<style type="text/css">
	.st0{fill:#DFEAF7;}
	.st1{fill:#F1F3F6;}
	.st2{fill:#002D53;}
	.st3{fill:#FFFFFF;}
	.st4{fill:#004072;}
	.st5{fill:#FF828A;}
	.st6{fill:#BC7F72;}
	.st7{fill:#D18C7E;}
	.st8{fill:#FFB3AE;}
	.st9{fill:#3D71F2;}
	.st10{fill:#FF7A72;}
</style>
<g>
	<g>
		<g>
			<path class="st0" d="M42.5,129.6c3.3,5.7,7.3,11.2,11.9,16.5l0,0c0.1,0.1,0.1,0.1,0.2,0.2c9.3,10.4,22.8,16.1,36.8,15.9l53.8-0.7
				c0,0,17.2-5,34.4-15.4c0,0,0,0,0,0c9.2-5.6,18.4-12.7,24.9-21.4c5.5-7.4,9.1-16,9.1-25.7c0,0,2.8-34.5-55.7-36.5
				c-26.7-3.1-22.2-34.9-79.5-33.7c-2,0-3.9,0.2-5.7,0.4c-3.1,0.4-6.1,1.1-8.9,1.9c-14.9,4.8-25.3,16.6-30.4,31.7
				c-1,2.9-1.7,5.8-2.3,8.9C27.9,89.4,31.3,110.3,42.5,129.6z"/>
		</g>
		<g>
			<g>
				<path class="st1" d="M31.2,71.6h41.5V29.1c-3.1,0.4-6.1,1.1-8.9,2c-14.9,4.8-25.3,16.6-30.4,31.6C32.5,65.6,31.8,68.5,31.2,71.6
					z"/>
			</g>
			<g>
				<path class="st0" d="M33.5,62.7h30.4V31.1C48.9,35.9,38.5,47.6,33.5,62.7z"/>
			</g>
		</g>
	</g>
	<g>
		<g>
			<path class="st2" d="M51.3,124.6H76c0-5.5-0.1-11-0.1-16.4c0.5-0.3,0.9-0.6,1.3-1c4.9-4.8-0.3-16.7-0.9-18
				c-1.1,1.6-2.2,3.2-3.2,4.8h-6.7c-0.9-1.6-1.8-3.2-2.7-4.8c-0.7,1.5-1.4,3.2-2,5.1c-1.7,5.5-1.9,10.4-1.8,14.1
				C57.8,108.5,56.3,109.1,51.3,124.6z"/>
		</g>
		<g>
			<path class="st3" d="M74.1,100.8c0,0.7,0.1,1.3,0.2,1.3c0.1,0,0.2-0.6,0.2-1.3c0-0.7-0.1-1.3-0.2-1.3
				C74.2,99.5,74.1,100.1,74.1,100.8z"/>
		</g>
		<g>
			<path class="st3" d="M67.5,100.8c0,0.7,0.1,1.3,0.2,1.3c0.1,0,0.2-0.6,0.2-1.3c0-0.7-0.1-1.3-0.2-1.3
				C67.6,99.5,67.5,100.1,67.5,100.8z"/>
		</g>
	</g>
	<g>
		<g>
			<g>
				<polygon class="st2" points="143.1,124.6 158.3,124.6 152.3,100.6 137.2,100.6 				"/>
			</g>
			<g>
				<g>
					<path class="st3" d="M106.8,111c-0.2,1.6,1,2.9,2.6,2.9h78.4c1.6,0,3.1-1.3,3.2-2.9l5.2-48.8c0.2-1.6-1-2.9-2.6-2.9h-78.4
						c-1.6,0-3.1,1.3-3.2,2.9L106.8,111z"/>
				</g>
				<g>
					<path class="st2" d="M106.8,111c-0.2,1.6,1,2.9,2.6,2.9h78.4c1.6,0,3.1-1.3,3.2-2.9l5.2-48.8c0.2-1.6-1-2.9-2.6-2.9h-78.4
						c-1.6,0-3.1,1.3-3.2,2.9L106.8,111z"/>
				</g>
			</g>
			<g>
				<g>
					<path class="st4" d="M184.5,110.3c1.6,0,3.1-1.3,3.2-2.9l4.4-41.6c0.2-1.6-1-2.9-2.6-2.9h-71.1c-1.6,0-3.1,1.3-3.2,2.9
						l-4.4,41.6c-0.2,1.6,1,2.9,2.6,2.9H184.5z"/>
				</g>
			</g>
			<g>
				<g>
					<polygon class="st5" points="166.8,75.9 183.7,75.9 184.2,73.3 167.2,73.3 					"/>
				</g>
				<g>
					<polygon class="st3" points="145.4,75.9 162.4,75.9 162.8,73.3 145.8,73.3 					"/>
				</g>
				<g>
					<polygon class="st3" points="165.6,83.6 182.5,83.6 182.9,80.9 166,80.9 					"/>
				</g>
				<g>
					<polygon class="st3" points="152.8,90.1 169.8,90.1 170.2,87.5 153.3,87.5 					"/>
				</g>
				<g>
					<polygon class="st3" points="142.8,97.6 159.7,97.6 160.1,94.9 143.2,94.9 					"/>
				</g>
				<g>
					<polygon class="st5" points="132.5,97.6 140.9,97.6 141.4,94.9 132.9,94.9 					"/>
				</g>
				<g>
					<polygon class="st5" points="134.1,90.1 151,90.1 151.5,87.5 134.5,87.5 					"/>
				</g>
			</g>
		</g>
		<g>
			<g>
				<path class="st6" d="M54.5,146L54.5,146c0.1,0.1,0.1,0.1,0.2,0.2c9.3,10.4,22.8,16.1,36.8,15.9l53.8-0.7c0,0,17.2-5,34.4-15.4
					c0,0,0,0,0,0H54.5z"/>
			</g>
			<g>
				<path class="st7" d="M42.5,129.5c3.3,5.7,7.3,11.2,12,16.5h125.2c9.2-5.6,18.4-12.7,24.9-21.4H46.1L42.5,129.5z"/>
			</g>
		</g>
	</g>
	<g>
		<g>
			<g>
				<path class="st8" d="M95.2,90.1c3.7,11,12.9,17.8,20.7,15.2c7.8-2.6,11.1-13.6,7.5-24.6s-12.9-17.8-20.7-15.2
					C94.9,68.1,91.6,79.1,95.2,90.1z"/>
			</g>
			<g>
				<rect x="94.5" y="92.7" class="st8" width="15.7" height="18.8"/>
			</g>
			<g>
				<path class="st2" d="M124.6,85.7c0,0,13-7.4,2.7-20.2c-2.7-3.9-2.7,4-2.7,4s-8.9-25.7-23.9-9.3c0,0-14.2,2.4-17.4,12
					c-1,3.1-0.5,5.7,0.1,8.6c0.2,1,3.8,18.2,16,20.4c1.7,0.3,5.7,0.7,10.8-2.1C115,94.6,119.8,90.1,124.6,85.7z"/>
			</g>
			<g>
				<path class="st8" d="M111.8,92.1c-0.3,3.4,0.6,6.3,2,6.4c1.4,0.1,2.8-2.5,3.1-6c0.3-3.4-0.6-6.3-2-6.4
					C113.5,86,112.1,88.7,111.8,92.1z"/>
			</g>
		</g>
		<g>
			<g>
				<path class="st9" d="M61.2,159.1c0,0,3.1,1.8,11.4,3.3c9.5,1.7,25.9,3.1,52.4,1c6.2-0.5,12.9-1.1,20.2-2c0,0-2.1-9.6-7.1-21
					c-6.8-15.6-19.1-34.5-38.8-36.7c-19.5-2.2-29.2,16.1-33.8,32.3C61.9,148.2,61.2,159.1,61.2,159.1z"/>
			</g>
			<g>
				<path class="st8" d="M61.2,159.1c0,0,3.1,1.8,11.4,3.3l2.5-22.9l-9.7-3.5C61.9,148.2,61.2,159.1,61.2,159.1z"/>
			</g>
			<g>
				<path class="st8" d="M122,146l1,5.9c1.2,6.6,7.3,11.2,13.9,10.5c2.7-0.3,5.4-0.6,8.3-0.9c9.4-1,27.4-27.5,27.4-27.5l4.9,1
					c1.6,5.7,2.8,7.1,3.7,7.1c1.8-0.1,2.8-7,2.2-11.1c-0.1-0.8-0.3-1.8-1.1-2.4c-0.7-0.6-1.6-0.7-2.4-0.7c-1,0.1-1.5,0.2-1.8,0.2
					c0.3,0,1-0.2,1.8-0.2c0.1,0,0.3,0,0.4,0c-0.5-4.8-3.6-8.8-7.7-10.2c-3.9-1.3-7.3,0.1-8.2,0.5c0,0-1.2-0.8-4.1-0.5
					c-2.9,0.3-4.4,7.3-4.4,7.3l-17.8,15.6C134.8,142.8,129.1,146,122,146z"/>
			</g>
			<g>
				<path class="st10" d="M178.2,128.7c0.1,0,0.1,0,0.2,0c0.3-0.1,0.9-0.2,1.6-0.2c0.4,0.1,0.8-0.4,0.9-0.8c0-0.5-0.4-0.8-0.8-0.9
					c-0.9,0-1.6,0.1-1.9,0.2c-0.5,0.1-0.8,0.5-0.7,1C177.5,128.5,177.8,128.7,178.2,128.7z"/>
			</g>
			<g>
				<path class="st10" d="M142.6,149.5c0.1,0,0.3,0,0.4-0.1c0.4-0.2,0.6-0.7,0.3-1.1l-4.4-8.2c-0.2-0.4-0.7-0.6-1.1-0.3
					c-0.4,0.2-0.6,0.7-0.3,1.1l4.4,8.2C142,149.3,142.3,149.5,142.6,149.5z"/>
			</g>
			<g>
				<path class="st2" d="M75.2,140.2c0.3,0,0.6-0.2,0.6-0.5l3.2-15.1c0.1-0.3-0.1-0.7-0.5-0.7c-0.4-0.1-0.7,0.1-0.7,0.5l-3.2,15.1
					c-0.1,0.3,0.1,0.7,0.5,0.7C75.1,140.2,75.1,140.2,75.2,140.2z"/>
			</g>
			<g>
				<path class="st2" d="M122,146.7c0.1,0,0.2,0,0.3-0.1c0.3-0.2,0.4-0.5,0.3-0.9l-5.8-10.7c-0.2-0.3-0.5-0.4-0.9-0.3
					c-0.3,0.2-0.4,0.5-0.3,0.9l5.8,10.7C121.5,146.5,121.7,146.7,122,146.7z"/>
			</g>
		</g>
	</g>
</g>
</svg>
