<?xml version="1.0" encoding="utf-8"?>
<!-- Generator: Adobe Illustrator 24.1.2, SVG Export Plug-In . SVG Version: 6.00 Build 0)  -->
<svg version="1.1" id="OBJECTS" xmlns="http://www.w3.org/2000/svg" xmlns:xlink="http://www.w3.org/1999/xlink" x="0px" y="0px"
	 viewBox="0 0 223.8 187.9" style="enable-background:new 0 0 223.8 187.9;" xml:space="preserve">
<style type="text/css">
	.st0{fill:#DFEAF7;}
	.st1{fill:#3D71F2;}
	.st2{fill:#002D53;}
	.st3{fill:#40C1B0;}
	.st4{fill:#FF828A;}
	.st5{fill:#004070;}
	.st6{fill:#FFB042;}
	.st7{fill:#FFFFFF;}
	.st8{fill:#FFB3AE;}
	.st9{fill:#FF7A72;}
</style>
<g>
	<g>
		<path class="st0" d="M200.8,124.3c-7,12.4-17.8,21.1-30.7,27c-0.1,0-0.1,0.1-0.2,0.1c-17.2,7.9-38,11-58,11.5
			c-19.3,0.6-37.9-1.2-52-3.1c-14.6-2-24.2-4.3-24.6-4.4c-1.1-0.3-2.1-0.7-2.1-0.7c-0.8-0.3-1.5-0.6-2.3-0.9c0,0,0,0-0.1,0l-0.2-0.1
			c-5.9-2.7-10.8-6.9-14.4-12.1c-4.3-6.2-6.6-13.8-6.2-21.7c0.4-8.2,2.3-17.3,7.1-26.2c9.9-18.5,32.5-36.2,55.4-37.8
			c8.7-0.6,20.9,0.4,33.3-7.2c2.8-1.8,3.8-2.4,6.4-4.1c3.8-2.4,23.2-14.7,46.3-12.1c5.7,0.6,24.6,3.6,38.1,19.5
			C215.3,73.6,211.5,105.4,200.8,124.3z"/>
	</g>
	<g>
		<g>
			<path class="st1" d="M175.5,140.4c-2,4.5-3.9,8.2-5.4,10.9c-0.1,0-0.1,0.1-0.2,0.1c-17.2,7.9-38,11-58,11.5
				c-6.6,0-12.6-0.2-18.1-0.7C85,156.7,81,148.3,83,142.5c0.5-1.6,1.5-2.9,2.9-4c13.3-10.1,34.7-10.4,39.1-21.9
				c3-7.7,10.4-29.2,15-42.6c1.4-4.2,12-15.2,24.5-14.6c10.4,0.5,17.5,9.2,18.2,10.1C198.4,89.3,181.4,127.3,175.5,140.4z"/>
		</g>
		<g>
			<path class="st2" d="M156,146.5C156,146.5,156,146.5,156,146.5l-19-2.5c-0.3,0-0.6-0.4-0.5-0.7c0-0.3,0.3-0.6,0.7-0.5l18.9,2.5
				c0.3,0,0.6,0.4,0.5,0.7C156.6,146.3,156.3,146.5,156,146.5z"/>
		</g>
	</g>
	<g>
		<g>
			<path class="st3" d="M54.9,106.7c-0.6-16.6-0.4-37.6,5.1-38.8c0.2,0,0.8-0.2,1.5,0.2C66,70.4,60.8,89.1,54.9,106.7z"/>
		</g>
		<g>
			<path class="st3" d="M54.9,106.7c-8.1-14.3-12.1-16.9-14.1-16.2c-0.8,0.2-1.3,1-1.5,1.6C37.8,96.7,51.3,104.7,54.9,106.7z"/>
		</g>
		<g>
			<path class="st3" d="M54.9,106.7c0,0,7.6-21.9,12.8-20.6C73,87.5,54.9,106.7,54.9,106.7z"/>
		</g>
		<g>
			<polygon class="st4" points="64.9,130.2 44.1,130.2 42.2,104.8 66.7,104.8 			"/>
		</g>
	</g>
	<g>
		<g>
			<path class="st2" d="M112,56.8c0,0-8.9-1.7-6.9-10.7c1.9-9,7.8-8.9,7.8-8.9s9.6-14.8,27.6-5.8c18,9,4.8,21.8,14.8,30.3
				c10.1,8.6,24.9,47.9-7.4,44.2L112,56.8z"/>
		</g>
		<g>
			<path class="st5" d="M136.5,146.7c-0.9,1.5-4.1,6.8-9.6,10.1c-16.2,9.8-40.9-4.3-48.9-8.9c-7.4-4.2-12.9-8.7-16.4-12l-26.1,19.6
				c-1.5-0.5-3-1-4.4-1.7c0,0,0,0-0.1,0l-0.2-0.1c-5.9-2.7-10.8-6.9-14.4-12.1c7.7-8.6,26.8-28.8,37.5-29.4
				c13.6-0.7,48.6,17.9,48.6,17.9l38.5-1.3C141.1,131.8,141,139.2,136.5,146.7z"/>
		</g>
		<g>
			<g>
				<path class="st6" d="M131.2,78c0,0-15.4,9.4-14.7,13c0.7,3.6,0.7,3.6,0.7,3.6L102.4,130c4.9,1.7,10.9,3.3,17.9,4.3
					c7.8,1.1,14.6,1.3,20.2,1c2.2-7,15.9-51.5,4-58.1c-1-0.5-2.2-0.9-3.7-0.8L131.2,78z"/>
			</g>
			<g>
				<path class="st7" d="M86.9,108.3l-11.6-4.7c-0.8-0.3-1.3-1.3-1.3-2.3V71.6c0-1.6,1.2-2.8,2.3-2.3L87.9,74
					c0.8,0.3,1.3,1.3,1.3,2.3V106C89.2,107.6,88,108.8,86.9,108.3z"/>
			</g>
			<g>
				<path class="st8" d="M142.6,99.5c-6.2,7.9-12.4,13.3-17.6,17c-1.5,1.1-2.9,2-4.2,2.8c-8.4,5.2-11.7,5.1-13,5
					c-11.8-1.2-17.3-20.9-17.6-22l-8-0.5c0,0-5-6-4-7.9c1-2,3.6-2.8,3.6-2.8s-5.6-2.3-2.8-4.2c2.8-1.8,10.4,1.5,10.4,1.5
					s-0.8-4.7,3.5-2.5c4.3,2.2,6.3,14.7,6.3,14.7c3.8,7.9,10.5,7.3,17.1,3.6c10.1-5.6,20.1-18.2,20.1-18.2L142.6,99.5z"/>
			</g>
			<g>
				<path class="st6" d="M144.9,101.2c-2.2,2.4-4.9,5-8.2,7.6c-4.2,3.4-8.2,5.9-11.7,7.7c-2.4-3.5-6.1-8.7-8.7-12.5
					c6-3.9,9.8-8,12.2-11.1c2.9-3.8,4.6-7.1,8.5-8.2c2.3-0.7,5.6-0.6,7.7,1.2C148.2,88.6,148.7,95.2,144.9,101.2z"/>
			</g>
			<g>
				<path class="st8" d="M108.8,78.5c0,0-1-5.1-6.7-1c-5.7,4.1-8.2,5.9-7.1,7.7c1,1.8,7.4-2.1,7.4-2.1"/>
			</g>
			<g>
				<path class="st8" d="M102.4,91L102.4,91c-1.2,0.4-2,0.1-2.6-0.6c-1.4-1.7-1.3-5.4-1.3-5.4c0.7-0.3,1.4-0.6,2.1-1
					C101.3,86.4,101.9,88.7,102.4,91z"/>
			</g>
			<g>
				<path class="st8" d="M103.8,91.4c-0.5,0.2-1,0-1.4-0.4v0c-0.3-0.2-0.5-0.6-0.6-1c0,0,0,0,0,0c-1-2.1-1.1-5.9-1.1-5.9
					c1-1.3,1.9-2.5,2.9-3.8c0.8,1.6,1.6,3.2,2.4,4.8C106,85.1,106.7,90.6,103.8,91.4z"/>
			</g>
			<g>
				<path class="st8" d="M111,109.4l-6.7-1.3l2.7-1.5c-6.4-0.3-7.2-16.2-7.2-16.2c0.6,0.7,1.4,1,2.6,0.6c0.4,0.4,0.8,0.5,1.4,0.4
					c2.9-0.9,2.2-6.3,2.2-6.3l-3.9-0.7c0.1-0.4,0.2-0.8,0.4-1.3l6.2-4.5c0.6-0.1,1.1,0,1.6,0.1h0.1c2.2,0.5,3.6,2.6,3.6,4.8v0.4
					c-0.1,9.2-0.3,13.4,1.7,14.3c0.5,0.2,0.8,0.1,1,0.3C118.5,100.4,111,109.4,111,109.4z"/>
			</g>
			<g>
				<path class="st9" d="M110.2,91.8c-0.1,0-0.1,0-0.2,0c-0.7-0.2-2.5-0.7-3.4-2.5c-1-1.9-0.6-4.4,1-6.2c0.3-0.3,0.8-0.4,1.2,0
					c0.3,0.3,0.4,0.9,0,1.2c-1.1,1.2-1.5,2.9-0.8,4.2c0.6,1.1,1.8,1.5,2.3,1.6c0.5,0.1,0.7,0.6,0.6,1
					C110.9,91.5,110.5,91.8,110.2,91.8z"/>
			</g>
			<g>
				<path class="st9" d="M103.4,86.8c-0.4,0-0.7-0.1-1.1-0.2c-0.4-0.2-1.3-0.7-1.1-2.3c0.1-0.5,0.5-0.8,1-0.7c0.5,0.1,0.8,0.5,0.7,1
					c0,0.2,0,0.5,0.1,0.6c0.2,0.1,0.9,0.2,2.6-0.7c1.1-0.6,2-1.3,2-1.3c0.4-0.3,0.9-0.3,1.2,0.1c0.3,0.3,0.3,0.8-0.1,1.2l-0.6-0.6
					l0.6,0.6c-0.1,0.1-1.1,0.9-2.3,1.6C105.3,86.5,104.3,86.8,103.4,86.8z"/>
			</g>
			<g>
				<path class="st9" d="M102.6,83.9c-0.1,0-0.2,0-0.4-0.1c-0.4-0.2-0.6-0.7-0.4-1.1c0.8-1.7,2.8-4,5.8-4.8c0.4-0.1,0.7-0.2,1.1-0.2
					c0.5,0,0.9,0.3,0.9,0.7c0,0.5-0.3,0.9-0.7,0.9c-0.3,0-0.6,0.1-0.9,0.1c-2.2,0.6-3.9,2.4-4.7,3.9
					C103.2,83.8,102.9,83.9,102.6,83.9z"/>
			</g>
			<g>
				<path class="st9" d="M116.4,104.9c-0.3,0-0.6-0.1-0.7-0.4c-0.2-0.4-0.1-0.9,0.3-1.2c0.1-0.1,9.4-5.7,14.5-14.2
					c0.2-0.4,0.8-0.5,1.1-0.3c0.4,0.2,0.5,0.7,0.3,1.1c-5.3,9-14.7,14.6-15.1,14.8C116.7,104.9,116.5,104.9,116.4,104.9z"/>
			</g>
		</g>
		<g>
			<g>
				<path class="st8" d="M140.9,76.4c-1.5,1.5-12.1,12-16.3,12c-0.2,0-0.7,0-0.9-0.3c-1.3-1.7,7.5-10,7.5-10
					c-0.2-0.7-0.3-1.4-0.5-2.1l-0.6-2.9c-0.6,0.6-1.4,1.3-2.5,2.1c-1.4,1-4.7,3.3-7.4,3.3c-5.1,0.1-8.4-10-8.4-10
					c-0.8-0.3-1.6-0.5-2.4-0.8c0.6-1.8,1.2-3.6,1.8-5.3c-2-5.1,0-15.5,0-15.5l0.9-3.3c1,1.6,4.4,6.6,11.1,9.2
					c6.1,2.3,11.4,1.3,13.4,0.8c0.7,3.4,1.3,6.7,2,10.1v0c0.5,2.4,0.9,4.8,1.4,7.2C140.2,72.7,140.6,74.5,140.9,76.4z"/>
			</g>
			<g>
				<path class="st8" d="M140.6,60c-1.1,3.3-3.5,5.4-5.4,4.8c-1.9-0.6-2.6-3.8-1.5-7.1c1.1-3.3,3.5-5.4,5.4-4.8
					C141,53.5,141.7,56.7,140.6,60z"/>
			</g>
			<g>
				<path class="st9" d="M139.8,70.8l-9.1,5.1l-0.6-2.9l8.3-9.4C138.9,66,139.4,68.4,139.8,70.8z"/>
			</g>
		</g>
	</g>
	<g>
		<path class="st1" d="M171.4,148.4l-1.5,3c-17.2,7.9-38,11-58,11.5c-19.3,0.6-37.9-1.2-52-3.1c1.1-4.1,5.4-13.8,23-17.3
			c2.3-0.5,4.8-0.8,7.6-1.1C120.6,138.9,171.4,148.4,171.4,148.4z"/>
	</g>
</g>
</svg>
