<?xml version="1.0" encoding="utf-8"?>
<!-- Generator: Adobe Illustrator 24.1.2, SVG Export Plug-In . SVG Version: 6.00 Build 0)  -->
<svg version="1.1" id="图层_1" xmlns="http://www.w3.org/2000/svg" xmlns:xlink="http://www.w3.org/1999/xlink" x="0px" y="0px"
	 viewBox="0 0 635.7 595.6" style="enable-background:new 0 0 635.7 595.6;" xml:space="preserve">
<style type="text/css">
	.st0{opacity:0.19;}
	.st1{fill:#4588FF;}
	.st2{opacity:0.35;}
	.st3{opacity:0.25;}
	.st4{fill:#FFFFFF;}
	.st5{fill:url(#SVGID_1_);}
	.st6{fill:#2875DF;}
	.st7{fill:#75BCFC;}
	.st8{fill:#4594F4;}
	.st9{fill:#347EE8;}
	.st10{fill:#FCC106;}
	.st11{fill:#205CE2;}
	.st12{fill:url(#SVGID_2_);}
	.st13{fill:#B4BBE1;}
	.st14{fill:#DAE3F2;}
	.st15{fill:#CED2EF;}
	.st16{fill:#C5C8E8;}
	.st17{fill:url(#SVGID_3_);}
	.st18{fill:#EF770A;}
	.st19{fill:#FF9906;}
	.st20{fill:#328EEA;}
	.st21{fill:url(#SVGID_4_);}
	.st22{opacity:0.45;fill:#75BCFC;}
	.st23{fill:none;stroke:#FFFFFF;stroke-width:0.846;stroke-linecap:round;stroke-miterlimit:10;}
	.st24{fill:url(#SVGID_5_);}
	.st25{opacity:0.45;fill:#B4BBE1;}
	.st26{fill:url(#SVGID_6_);}
	.st27{fill:#F7F5FA;}
	.st28{fill:none;stroke:#B4BBE1;stroke-linecap:round;stroke-miterlimit:10;}
	.st29{fill:url(#SVGID_7_);}
	.st30{opacity:0.35;fill:url(#SVGID_8_);}
	.st31{fill:#EBF6F7;}
	.st32{fill:url(#SVGID_9_);}
	.st33{fill:url(#SVGID_10_);}
	.st34{fill:url(#SVGID_11_);}
	.st35{fill:url(#SVGID_12_);}
	.st36{fill:url(#SVGID_13_);}
	.st37{fill:url(#SVGID_14_);}
	.st38{fill:url(#SVGID_15_);}
	.st39{fill:url(#SVGID_16_);}
	.st40{fill:url(#SVGID_17_);}
	.st41{fill:url(#SVGID_18_);}
	.st42{fill:url(#SVGID_19_);}
	.st43{fill:url(#SVGID_20_);}
	.st44{fill:url(#SVGID_21_);}
	.st45{fill:url(#SVGID_22_);}
	.st46{fill:url(#SVGID_23_);}
	.st47{fill:url(#SVGID_24_);}
	.st48{fill:url(#SVGID_25_);}
	.st49{fill:url(#SVGID_26_);}
	.st50{fill:url(#SVGID_27_);}
	.st51{fill:url(#SVGID_28_);}
	.st52{fill:url(#SVGID_29_);}
	.st53{fill:url(#SVGID_30_);}
	.st54{fill:url(#SVGID_31_);}
	.st55{fill:url(#SVGID_32_);}
	.st56{fill:url(#SVGID_33_);}
	.st57{fill:url(#SVGID_34_);}
	.st58{fill:url(#SVGID_35_);}
	.st59{fill:url(#SVGID_36_);}
	.st60{fill:url(#SVGID_37_);}
	.st61{fill:url(#SVGID_38_);}
	.st62{fill:url(#SVGID_39_);}
	.st63{fill:url(#SVGID_40_);}
	.st64{fill:url(#SVGID_41_);}
	.st65{fill:url(#SVGID_42_);}
	.st66{fill:url(#SVGID_43_);}
	.st67{fill:url(#SVGID_44_);}
	.st68{fill:url(#SVGID_45_);}
	.st69{fill:url(#SVGID_46_);}
	.st70{fill:url(#SVGID_47_);}
	.st71{fill:url(#SVGID_48_);}
	.st72{fill:url(#SVGID_49_);}
	.st73{fill:url(#SVGID_50_);}
	.st74{font-family:'OpenSans-Bold';}
	.st75{font-size:13.4603px;}
	.st76{opacity:0.75;}
	.st77{opacity:0.35;fill:#4588FF;}
	.st78{fill:none;stroke:#DAE3F2;stroke-miterlimit:10;}
	.st79{fill:none;stroke:#DAE3F2;stroke-linecap:round;stroke-linejoin:round;stroke-miterlimit:10;}
	.st80{fill:url(#SVGID_51_);}
	.st81{opacity:0.11;fill:#B4BBE1;}
	.st82{opacity:0.15;fill:#B4BBE1;}
	.st83{opacity:0.25;fill:#B4BBE1;}
	.st84{opacity:0.55;fill:#B4BBE1;}
	.st85{opacity:0.2;fill:url(#SVGID_52_);}
	.st86{opacity:0.2;fill:#FFFFFF;}
	.st87{opacity:0.4;fill:#FFFFFF;}
	.st88{fill:#81C5E8;}
	.st89{fill:#CDD5F7;}
	.st90{fill:#2D2D2D;}
	.st91{fill:#3A3A3A;}
	.st92{fill:#4B4C4C;}
	.st93{fill:none;stroke:#FFFFFF;stroke-width:2.7567;stroke-linecap:round;stroke-linejoin:round;stroke-miterlimit:10;}
	.st94{fill:#F2BA88;}
	.st95{fill:#FFD1A4;}
	.st96{fill:#E8ECF7;}
	.st97{fill:url(#SVGID_53_);}
	.st98{fill:#190B05;}
	.st99{fill:#7F391B;}
	.st100{fill:#934B32;}
	.st101{fill:#682C17;}
	.st102{opacity:0.5;fill:#595959;}
	.st103{fill:#845424;}
	.st104{fill:#713E23;}
	.st105{opacity:0.39;fill:#EFEFEF;}
	.st106{fill:#442312;}
	.st107{fill:#D39867;}
	.st108{fill:#EFEFEF;}
	.st109{fill:#1D68D6;}
	.st110{fill:url(#SVGID_54_);}
	.st111{fill:#063444;}
	.st112{opacity:0.55;fill:#FFFFFF;}
	.st113{opacity:0.75;fill:#205CE2;}
	.st114{fill:#CCCCCC;}
	.st115{fill:#165BD6;}
	.st116{fill:none;stroke:#381E1E;stroke-width:0.6975;stroke-miterlimit:10;}
	.st117{fill:#474747;}
	.st118{fill:#134DCE;}
</style>
<g id="XMLID_238_" class="st0">
	<g>
		<path class="st1" d="M407,103.4c-0.3-0.1-0.7-0.2-1-0.4l-59.7-34.3c-1.4-0.8-2.4-2.4-2.4-3.9V11.3c0-0.9,0.5-1.7,1.2-2.1
			c0.8-0.4,1.7-0.3,2.6,0.2l59.6,34.3c1.4,0.8,2.4,2.4,2.4,3.9v53.5c0,0.9-0.4,1.6-1.2,2C408,103.4,407.5,103.5,407,103.4z"/>
	</g>
</g>
<g id="XMLID_239_" class="st2">
	<g>
		<path class="st1" d="M430.4,145.2c-0.2,0-0.5-0.1-0.7-0.3l-43-24.7c-1-0.6-1.7-1.7-1.7-2.8V78.8c0-0.7,0.3-1.2,0.9-1.5
			c0.5-0.3,1.2-0.2,1.8,0.1l42.9,24.7c1,0.6,1.7,1.7,1.7,2.8v38.6c0,0.6-0.3,1.2-0.9,1.5C431.2,145.2,430.8,145.2,430.4,145.2z"/>
	</g>
</g>
<g id="XMLID_240_" class="st0">
	<path class="st1" d="M229,113.9c-0.2,0-0.3-0.1-0.5-0.2l-29.5-17c-0.7-0.4-1.2-1.2-1.2-1.9V68.4c0-0.5,0.2-0.8,0.6-1
		c0.4-0.2,0.8-0.2,1.3,0.1l29.4,16.9c0.7,0.4,1.2,1.2,1.2,1.9v26.5c0,0.4-0.2,0.8-0.6,1C229.5,113.9,229.3,113.9,229,113.9z"/>
</g>
<g id="XMLID_231_">
	<g id="XMLID_237_" class="st3">
		<g>
			<path class="st1" d="M527.8,266.7c-0.4-0.1-0.7-0.2-1.1-0.4l-64-36.8c-1.5-0.9-2.5-2.5-2.5-4.2V168c0-1,0.5-1.8,1.3-2.2
				c0.8-0.4,1.8-0.3,2.8,0.2l63.9,36.7c1.5,0.9,2.5,2.5,2.5,4.2v57.4c0,1-0.5,1.8-1.3,2.2C528.9,266.7,528.3,266.8,527.8,266.7z"/>
		</g>
	</g>
	<g id="XMLID_233_">
		<g id="XMLID_236_">
			<path class="st4" d="M495.7,239.4c-5.3-0.2-12.3-7.5-15.9-16.2c-4-10.1-3.9-20.9,0.3-27.4c4.1-6.3,11.4-7.1,18-1.7
				c-0.2,0.6-0.3,1.1-0.5,1.7c-1.5,5.6-3.1,11.2-4.5,16.8c-0.3,1.3-0.4,3-0.2,4.6c0.8,6.7,1.7,13.4,2.5,20.2
				C495.5,238,495.6,238.7,495.7,239.4z"/>
		</g>
		<g id="XMLID_235_">
			<path class="st4" d="M497.8,239.9c-0.9-7.4-1.8-14.5-2.8-21.8c4.7,4.2,9.3,8.3,14,12.5C506.8,236.8,503.1,239.8,497.8,239.9z"/>
		</g>
		<g id="XMLID_234_">
			<path class="st4" d="M500.1,196c7.4,6.7,12,21.8,9.6,31.9c-4.9-4.3-9.7-8.7-14.7-13.1C496.8,208.5,498.5,202.2,500.1,196z"/>
		</g>
	</g>
</g>
<g>
	<linearGradient id="SVGID_1_" gradientUnits="userSpaceOnUse" x1="175.7949" y1="220.4192" x2="101.6471" y2="263.2284">
		<stop  offset="0" style="stop-color:#B4BBE1;stop-opacity:0.1"/>
		<stop  offset="1" style="stop-color:#B4BBE1;stop-opacity:0.3"/>
	</linearGradient>
	<polygon class="st5" points="95.2,252.1 120.9,266.9 182.2,231.6 156.7,216.7 	"/>
	<path class="st6" d="M158.8,111.5l-57.3,33l19.4,11.2l41.1-33.5v-8.9C162,111.7,160.2,110.6,158.8,111.5z"/>
	<polygon class="st7" points="101.5,147.5 158.5,114.7 179,126.6 122,159.4 	"/>
	<path class="st8" d="M180.5,123c-0.7-0.5-1.6-0.7-2.5-0.2l-57.1,32.9l-19.4-11.2l57.3-33c0.6-0.4,1.3-0.4,1.9-0.1l0,0
		c0,0-2-1-2.8-1.4c-0.7-0.4-1.6-0.6-2.4-0.2l-60.3,34.7v101.3l22.6-13v26l61.6-35.5c1.2-0.7,1.9-1.9,1.9-3.2l1.9-95.5
		C183.2,124.5,181.4,123.5,180.5,123z"/>
	<polygon class="st9" points="120.9,159.3 95.2,144.5 95.2,245.7 120.9,260.5 	"/>
	<polygon class="st10" points="117.4,164.8 97.6,153.3 97.6,161.1 117.4,172.5 	"/>
	<polygon class="st10" points="117.4,175 97.6,163.5 97.6,166.2 117.4,177.7 	"/>
	<polygon class="st10" points="117.4,180 97.6,168.5 97.6,171.2 117.4,182.6 	"/>
	<polygon class="st10" points="117.4,247.4 97.6,235.9 97.6,238.6 117.4,250 	"/>
	<path class="st11" d="M181.2,124.6l-60.3,34.7v101.3l61.6-35.5c1.2-0.7,1.9-1.9,1.9-3.2v-95.4C184.4,124.8,182.6,123.7,181.2,124.6
		z"/>
</g>
<g>
	<linearGradient id="SVGID_2_" gradientUnits="userSpaceOnUse" x1="221.8884" y1="231.99" x2="147.7408" y2="274.7991">
		<stop  offset="0" style="stop-color:#B4BBE1;stop-opacity:0.1"/>
		<stop  offset="1" style="stop-color:#B4BBE1;stop-opacity:0.3"/>
	</linearGradient>
	<polygon class="st12" points="141.3,263.6 167,278.5 228.3,243.2 202.8,228.2 	"/>
	<path class="st13" d="M204.9,118.9l-57.3,33l19.4,11.2l41.1-33.5v-8.9C208.1,119.1,206.3,118.1,204.9,118.9z"/>
	<polygon class="st14" points="147.6,155 204.5,122.2 225.1,134 168.1,166.8 	"/>
	<path class="st15" d="M226.6,130.4c-0.7-0.5-1.6-0.7-2.5-0.2L167,163.1l-19.4-11.2l57.3-33c0.6-0.4,1.3-0.4,1.9-0.1l0,0
		c0,0-2-1-2.8-1.4c-0.7-0.4-1.6-0.6-2.4-0.2l-60.3,34.7v101.3l22.6-13v26l61.6-35.5c1.2-0.7,1.9-1.9,1.9-3.2l1.9-95.5
		C229.3,131.9,227.5,131,226.6,130.4z"/>
	<polygon class="st16" points="167,166.7 141.3,151.9 141.3,253.1 167,268 	"/>
	<polygon class="st4" points="163.5,172.2 143.7,160.8 143.7,168.5 163.5,179.9 	"/>
	<polygon class="st4" points="163.5,182.4 143.7,171 143.7,173.7 163.5,185.1 	"/>
	<polygon class="st4" points="163.5,187.4 143.7,176 143.7,178.7 163.5,190.1 	"/>
	<polygon class="st4" points="163.5,254.8 143.7,243.4 143.7,246.1 163.5,257.5 	"/>
	<path class="st13" d="M227.3,132L167,166.7V268l61.6-35.5c1.2-0.7,1.9-1.9,1.9-3.2v-95.4C230.5,132.2,228.7,131.2,227.3,132z"/>
</g>
<g>
	<linearGradient id="SVGID_3_" gradientUnits="userSpaceOnUse" x1="98.8544" y1="303.8698" x2="59.2513" y2="326.7346">
		<stop  offset="0" style="stop-color:#B4BBE1;stop-opacity:0.1"/>
		<stop  offset="1" style="stop-color:#B4BBE1;stop-opacity:0.3"/>
	</linearGradient>
	<polygon class="st17" points="45.4,302.7 101,335.3 112.7,327.9 57.1,295.3 	"/>
	<polygon class="st16" points="112.7,275.1 112.7,321.4 101,328.8 101,282.5 	"/>
	<polygon class="st15" points="45.4,249.9 101,282.5 112.7,275.1 57.1,242.6 	"/>
	<polygon class="st13" points="101,328.8 45.4,296.3 45.4,249.9 101,282.5 	"/>
	<polygon class="st16" points="45.4,249.9 73.2,289.4 101,282.5 	"/>
	<path class="st6" d="M90.4,258.9v9.1c0,0.7-0.4,1.2-1,1.4c-0.2,0.1-0.3,0.1-0.5,0.1c-0.9,0-1.5-0.6-1.5-1.5V259
		c0-0.9-0.5-1.7-1.2-2.1l-13.9-8.1c-0.3-0.2-0.7-0.2-1,0c-0.1,0-0.1,0.1-0.2,0.1c0,0,0,0-0.1,0c-0.2,0.2-0.2,0.4-0.2,0.7v6.9
		c0,0.6-0.4,1.2-1,1.4c-0.2,0.1-0.4,0.1-0.6,0.1c-0.9,0-1.5-0.6-1.5-1.5v-6.9c0-1.5,0.8-2.8,2.1-3.6c0.3-0.2,0.6-0.3,1-0.4
		c1-0.3,2.1-0.2,3.1,0.4l13.9,8.1C89.4,255.2,90.4,257,90.4,258.9z"/>
	<polygon class="st18" points="76.3,287.7 76.3,292.4 75.3,293 75.3,288.3 	"/>
	<polygon class="st19" points="69.6,285 75.3,288.3 76.3,287.7 70.7,284.3 	"/>
	<polygon class="st10" points="75.3,293 69.6,289.7 69.6,285 75.3,288.3 	"/>
	<path class="st20" d="M90.4,258.9v9.1c0,0.7-0.4,1.2-1,1.4v-9.1c0-3.3-1.4-4.5-1.4-4.5l-17.3-10.1c1-0.3,2.1-0.2,3.1,0.4l13.9,8.1
		C89.4,255.2,90.4,257,90.4,258.9z"/>
	<path class="st20" d="M71,249c-0.2,0.2-0.2,0.4-0.2,0.7v6.9c0,0.6-0.4,1.2-1,1.4v-7C69.8,249.8,70.7,249.1,71,249z"/>
</g>
<g>
	
		<linearGradient id="SVGID_4_" gradientUnits="userSpaceOnUse" x1="1267.2756" y1="290.9883" x2="1528.0985" y2="441.5744" gradientTransform="matrix(-1 0 0 1 1756.4469 0)">
		<stop  offset="0" style="stop-color:#B4BBE1;stop-opacity:0.1"/>
		<stop  offset="1" style="stop-color:#B4BBE1;stop-opacity:0.3"/>
	</linearGradient>
	<path class="st21" d="M327.1,260.3l216.4,125l-151.2,85.9c-3.5,2-7.7,2-11.2,0L178.8,354.3c-3.8-2.2-3.8-7.6,0-9.8L327.1,260.3z"/>
	<path class="st13" d="M548.7,188.9v161.8l-5.1,2.8L332.2,225.7l-2.8-161.9c0,0,3.5-1.9,4.7-2.6c1.3-0.7,2.9-0.9,4.3-0.1L543,179.1
		C546.5,181.1,548.7,184.8,548.7,188.9z"/>
	<path class="st14" d="M543.6,191.7v161.8l-216.4-125v-161c0-3.2,3.5-5.2,6.3-3.6l204.5,118.1C541.4,183.9,543.6,187.6,543.6,191.7z
		"/>
	<polygon class="st11" points="533.1,189 533.1,336.8 333.4,221.8 333.4,74 	"/>
	<polygon class="st7" points="503,181 503,196.6 389.9,131.4 389.9,115.9 	"/>
	<polygon class="st6" points="393.1,128.8 393.1,121.9 499.9,183.5 499.9,190.4 	"/>
	<g id="XMLID_242_">
		<path id="XMLID_254_" class="st22" d="M467.8,256.4l38.9,22.6c1.8,1,3.7,0.1,3.7-1.8v-45.4c0-1.1-0.7-2.2-1.7-2.8l-38.9-22.6
			c-1.8-1-3.7-0.1-3.7,1.8v45.4C466.1,254.7,466.8,255.8,467.8,256.4z"/>
		<g class="st3">
			<line id="XMLID_251_" class="st23" x1="507.4" y1="237" x2="469" y2="214.8"/>
			<line id="XMLID_250_" class="st23" x1="507.4" y1="241.8" x2="469" y2="219.6"/>
			<line id="XMLID_249_" class="st23" x1="507.4" y1="246.6" x2="469" y2="224.4"/>
			<line id="XMLID_248_" class="st23" x1="507.4" y1="251.4" x2="469" y2="229.2"/>
			<line id="XMLID_247_" class="st23" x1="507.4" y1="256.2" x2="469" y2="234"/>
			<line id="XMLID_245_" class="st23" x1="507.4" y1="261" x2="469" y2="238.8"/>
			<line id="XMLID_244_" class="st23" x1="507.4" y1="265.7" x2="469" y2="243.6"/>
			<line id="XMLID_243_" class="st23" x1="507.4" y1="270.5" x2="478.9" y2="254"/>
		</g>
	</g>
	<path class="st13" d="M327.1,234.7l216.4,118.8v6.2l-151.2,85.9c-3.5,2-7.7,2-11.2,0L178.8,328.7c-1.9-1.1-2.8-3-2.8-4.9
		c0-1.9,0-6.3,0-6.3L327.1,234.7z"/>
	<linearGradient id="SVGID_5_" gradientUnits="userSpaceOnUse" x1="418.3993" y1="300.06" x2="262.9168" y2="389.8279">
		<stop  offset="0" style="stop-color:#CED5EF"/>
		<stop  offset="0.3714" style="stop-color:#D5DDF1"/>
		<stop  offset="0.8656" style="stop-color:#DAE3F2"/>
	</linearGradient>
	<path class="st24" d="M327.1,228.5l216.4,125l-151.2,85.9c-3.5,2-7.7,2-11.2,0L178.8,322.5c-3.8-2.2-3.8-7.6,0-9.8L327.1,228.5z"/>
	<polygon class="st25" points="249.8,294 331.5,247.5 510.3,350.8 428.6,397.2 	"/>
	<linearGradient id="SVGID_6_" gradientUnits="userSpaceOnUse" x1="458.3949" y1="275.606" x2="301.7504" y2="366.0447">
		<stop  offset="0" style="stop-color:#CED5EF"/>
		<stop  offset="0.3714" style="stop-color:#D5DDF1"/>
		<stop  offset="0.8656" style="stop-color:#DAE3F2"/>
	</linearGradient>
	<path class="st26" d="M438.1,323.5l-7.4-4.3l8.9-5.1l7.4,4.3L438.1,323.5z M474.1,348.4l-155.9-90l-8.9,5.1l155.9,90L474.1,348.4z
		 M437.4,312.9l-7.4-4.3l-8.9,5.1l7.4,4.3L437.4,312.9z M427.8,307.3l-7.4-4.3l-8.9,5.1l7.4,4.3L427.8,307.3z M341.5,257.4
		l-10.8-6.2l-8.9,5.1l10.8,6.2L341.5,257.4z M466.2,329.5l-7.4-4.3l-8.9,5.1l7.4,4.3L466.2,329.5z M475.8,335l-7.4-4.3l-8.9,5.1
		l7.4,4.3L475.8,335z M456.6,323.9l-7.4-4.3l-8.9,5.1l7.4,4.3L456.6,323.9z M360.7,268.5l-7.4-4.3l-8.9,5.1l7.4,4.3L360.7,268.5z
		 M370.3,274.1l-7.4-4.3l-8.9,5.1l7.4,4.3L370.3,274.1z M418.2,301.8l-7.4-4.3l-8.9,5.1l7.4,4.3L418.2,301.8z M343.6,258.7l-8.9,5.1
		l7.4,4.3l8.9-5.1L343.6,258.7z M379.9,279.6l-7.4-4.3l-8.9,5.1l7.4,4.3L379.9,279.6z M389.5,285.2l-7.4-4.3l-8.9,5.1l7.4,4.3
		L389.5,285.2z M408.6,296.2l-7.4-4.3l-8.9,5.1l7.4,4.3L408.6,296.2z M399.1,290.7l-7.4-4.3l-8.9,5.1l7.4,4.3L399.1,290.7z
		 M486.6,341.3l-8.6-5l-8.9,5.1l8.6,5L486.6,341.3z M423.7,377.1l-8.7,5l14.5,8.4l8.9-5.1l-14.9-8.6L423.7,377.1z M421.6,371.5
		l20.4,11.8l8.9-5.1l-20.4-11.8L421.6,371.5z M274.9,291l-7-4L259,292l7,4L274.9,291z M428.4,361l26.2,15.1l8.9-5.1l-26.2-15.1
		L428.4,361z M421.7,375.7l-8.4-4.9l-8.9,5.1l8.4,4.9L421.7,375.7z M488.8,342.5l-8.9,5.1l12.3,7.1l8.9-5.1L488.8,342.5z
		 M467.3,354.7l12.3,7.1l8.9-5.1l-12.3-7.1L467.3,354.7z M447.7,357.8l19.4,11.2l8.9-5.1l-19.4-11.2L447.7,357.8z M295.4,313.1
		l8.9-5.1l-27.3-15.8l-8.9,5.1L295.4,313.1z M314.8,314l-8.3-4.8l-8.9,5.1l8.3,4.8L314.8,314z M454.5,351.5l-148.9-86l-8.9,5.1
		l148.9,86L454.5,351.5z M428.4,365.2l-147.9-85.4l-8.9,5.1l147.9,85.4L428.4,365.2z M435.1,354.7l-142.1-82l-8.9,5.1l142.1,82
		L435.1,354.7z M400.4,363.4L338,327.4l-8.9,5.1l62.5,36.1L400.4,363.4z M325.3,320.1l-8.3-4.8l-8.9,5.1l8.3,4.8L325.3,320.1z
		 M411.1,369.6l-8.5-4.9l-8.9,5.1l8.5,4.9L411.1,369.6z M335.8,326.1l-8.3-4.8l-8.9,5.1l8.3,4.8L335.8,326.1z"/>
	<g>
		<path class="st27" d="M290.9,323.9l46.3,26.7c0.8,0.5,0.8,1.7,0,2.2l-25.7,14.6c-1.2,0.7-2.6,0.7-3.8,0l-46.3-26.7
			c-0.8-0.5-0.8-1.7,0-2.2l25.7-14.6C288.3,323.3,289.8,323.3,290.9,323.9z"/>
		<path class="st13" d="M337.2,351.5l-46.3-26.7c-1.2-0.7-2.6-0.7-3.8,0l-25.7,14.6c-0.3,0.2-0.4,0.4-0.5,0.6
			c-0.2-0.5,0-1.2,0.5-1.5l25.7-14.6c1.2-0.7,2.6-0.7,3.8,0l46.3,26.7c0.6,0.3,0.7,1,0.5,1.5C337.6,351.9,337.5,351.7,337.2,351.5z"
			/>
	</g>
	<line class="st28" x1="433.2" y1="125.8" x2="446.5" y2="133.4"/>
	<path class="st13" d="M452.8,136.3c0.3,0.7,0,1.3-0.7,1.3c-0.7,0-1.5-0.6-1.8-1.3c-0.3-0.7,0-1.3,0.7-1.3
		C451.7,135.1,452.5,135.6,452.8,136.3z"/>
</g>
<g>
	<linearGradient id="SVGID_7_" gradientUnits="userSpaceOnUse" x1="422.3755" y1="396.1204" x2="422.3755" y2="170.3606">
		<stop  offset="0" style="stop-color:#B4BBE1;stop-opacity:0.1"/>
		<stop  offset="1" style="stop-color:#B4BBE1;stop-opacity:0.3"/>
	</linearGradient>
	<polygon class="st29" points="459.9,170.4 496.5,186.2 496.5,196 496.5,327.9 380.7,396.1 348.3,356.7 	"/>
	<path class="st13" d="M409.3,324.5l40.5,23.7l0.1-0.5c-2.2-1.6-3.7-4.2-3.7-7.4v-5.9c0-4.2-2-11.4-5-13.5c-0.5-0.4-1.1-0.7-1.6-0.9
		l0,0c-3.6-1.7-8.1-1.7-12,0.9C424.8,322.6,411.5,322.3,409.3,324.5z"/>
	<path class="st4" d="M496.5,185.6l-101.9-58.7L375.1,138h0c-3.6,2-6.3,5.8-6.3,10.5v118.7c0,3.6-0.9,7-2.6,10.1l-26.4-15.4
		c-0.5-0.4-1.1-0.7-1.7-1l0,0c-1.7-0.8-3.6-1.2-5.5-1.1c-2.1,0.1-4.3,0.7-6.4,2.1c-11.9,7.8-19.2,21-19.2,35v0.3
		c0,12.8-6.3,25-16.9,32.6l-23.9,17l101.4,59l23.9-17c10.6-7.6,17.3-20.1,17-32.6v-0.3c0-6.7,1.7-13.3,4.7-19.1
		c3.3-6.3,8.3-11.9,14.5-15.9c4-2.6,8.5-2.6,12-0.9l0,0c0.6,0.3,1.2,0.7,1.7,1.1c4.4,3.9,4.9,9.1,4.9,13.3v5.9
		c0,7.4,8.1,11.6,14.4,7.5l0,0c8.3-5.2,9.7-14.5,9.7-21.6V207.5c0-4.9,2.9-8.8,6.8-10.8l0,0L496.5,185.6z"/>
	<linearGradient id="SVGID_8_" gradientUnits="userSpaceOnUse" x1="334.9177" y1="386.9471" x2="462.4977" y2="165.9719">
		<stop  offset="0" style="stop-color:#B4BBE1;stop-opacity:0.1"/>
		<stop  offset="0.4086" style="stop-color:#B4BBE1;stop-opacity:0.4"/>
		<stop  offset="0.8271" style="stop-color:#B4BBE1;stop-opacity:0.8"/>
		<stop  offset="0.8512" style="stop-color:#CCD1EB;stop-opacity:0.7301"/>
		<stop  offset="0.881" style="stop-color:#E3E5F4;stop-opacity:0.6439"/>
		<stop  offset="0.9135" style="stop-color:#F3F4FA;stop-opacity:0.5502"/>
		<stop  offset="0.9501" style="stop-color:#FCFCFE;stop-opacity:0.4442"/>
		<stop  offset="1" style="stop-color:#FFFFFF;stop-opacity:0.3"/>
	</linearGradient>
	<path class="st30" d="M496.5,185.6l-101.9-58.7L375.1,138h0c-3.6,2-6.3,5.8-6.3,10.5v118.7c0,3.6-0.9,7-2.6,10.1l-26.4-15.4
		c-0.5-0.4-1.1-0.7-1.7-1l0,0c-1.7-0.8-3.6-1.2-5.5-1.1c-2.1,0.1-4.3,0.7-6.4,2.1c-11.9,7.8-19.2,21-19.2,35v0.3
		c0,12.8-6.3,25-16.9,32.6l-23.9,17l101.4,59l23.9-17c10.6-7.6,17.3-20.1,17-32.6v-0.3c0-6.7,1.7-13.3,4.7-19.1
		c3.3-6.3,8.3-11.9,14.5-15.9c4-2.6,8.5-2.6,12-0.9l0,0c0.6,0.3,1.2,0.7,1.7,1.1c4.4,3.9,4.9,9.1,4.9,13.3v5.9
		c0,7.4,8.1,11.6,14.4,7.5l0,0c8.3-5.2,9.7-14.5,9.7-21.6V207.5c0-4.9,2.9-8.8,6.8-10.8l0,0L496.5,185.6z"/>
	<path class="st4" d="M373.7,299.3l-4.6-2.7C370.3,297.9,371.9,298.9,373.7,299.3z"/>
	<polygon class="st16" points="266,346.7 266,347.7 367.4,406.6 367.4,405.7 	"/>
	<path class="st31" d="M444.3,311.9C444.3,311.9,444.3,311.9,444.3,311.9C444.3,311.9,444.3,311.9,444.3,311.9z"/>
	<g>
		<path class="st10" d="M434.5,238.1l31.6,18.3c0.5,0.3,1.1-0.1,1.1-0.6v-38c0-0.7-0.3-1.3-0.9-1.6l-32-18.5
			c-0.4-0.2-0.9,0.1-0.9,0.5v38.1C433.4,237,433.8,237.7,434.5,238.1z"/>
		<linearGradient id="SVGID_9_" gradientUnits="userSpaceOnUse" x1="371.3403" y1="198.656" x2="431.2574" y2="198.656">
			<stop  offset="0" style="stop-color:#CED5EF"/>
			<stop  offset="0.3714" style="stop-color:#D5DDF1"/>
			<stop  offset="0.8656" style="stop-color:#DAE3F2"/>
		</linearGradient>
		<path class="st32" d="M371.7,182.9l59.1,34.4c0.2,0.1,0.5,0,0.5-0.3v-2.1c0-0.2-0.1-0.4-0.3-0.5L371.8,180c-0.2-0.1-0.5,0-0.5,0.3
			v2.1C371.3,182.6,371.5,182.8,371.7,182.9z"/>
		<linearGradient id="SVGID_10_" gradientUnits="userSpaceOnUse" x1="371.3403" y1="192.4533" x2="431.2574" y2="192.4533">
			<stop  offset="0" style="stop-color:#CED5EF"/>
			<stop  offset="0.3714" style="stop-color:#D5DDF1"/>
			<stop  offset="0.8656" style="stop-color:#DAE3F2"/>
		</linearGradient>
		<path class="st33" d="M371.7,176.7l59.1,34.4c0.2,0.1,0.5,0,0.5-0.3v-2.1c0-0.2-0.1-0.4-0.3-0.5l-59.2-34.4
			c-0.2-0.1-0.5,0-0.5,0.3v2.1C371.3,176.4,371.5,176.6,371.7,176.7z"/>
		<linearGradient id="SVGID_11_" gradientUnits="userSpaceOnUse" x1="371.3403" y1="204.8587" x2="431.2574" y2="204.8587">
			<stop  offset="0" style="stop-color:#CED5EF"/>
			<stop  offset="0.3714" style="stop-color:#D5DDF1"/>
			<stop  offset="0.8656" style="stop-color:#DAE3F2"/>
		</linearGradient>
		<path class="st34" d="M371.7,189.1l59.1,34.4c0.2,0.1,0.5,0,0.5-0.3v-2.1c0-0.2-0.1-0.4-0.3-0.5l-59.2-34.4
			c-0.2-0.1-0.5,0-0.5,0.3v2.1C371.3,188.8,371.5,189,371.7,189.1z"/>
		<linearGradient id="SVGID_12_" gradientUnits="userSpaceOnUse" x1="371.3403" y1="211.0614" x2="431.2574" y2="211.0614">
			<stop  offset="0" style="stop-color:#CED5EF"/>
			<stop  offset="0.3714" style="stop-color:#D5DDF1"/>
			<stop  offset="0.8656" style="stop-color:#DAE3F2"/>
		</linearGradient>
		<path class="st35" d="M371.7,195.3l59.1,34.4c0.2,0.1,0.5,0,0.5-0.3v-2.1c0-0.2-0.1-0.4-0.3-0.5l-59.2-34.4
			c-0.2-0.1-0.5,0-0.5,0.3v2.1C371.3,195,371.5,195.2,371.7,195.3z"/>
		<linearGradient id="SVGID_13_" gradientUnits="userSpaceOnUse" x1="371.3403" y1="217.2642" x2="431.2574" y2="217.2642">
			<stop  offset="0" style="stop-color:#CED5EF"/>
			<stop  offset="0.3714" style="stop-color:#D5DDF1"/>
			<stop  offset="0.8656" style="stop-color:#DAE3F2"/>
		</linearGradient>
		<path class="st36" d="M371.7,201.5l59.1,34.4c0.2,0.1,0.5,0,0.5-0.3v-2.1c0-0.2-0.1-0.4-0.3-0.5l-59.2-34.4
			c-0.2-0.1-0.5,0-0.5,0.3v2.1C371.3,201.2,371.5,201.4,371.7,201.5z"/>
		<linearGradient id="SVGID_14_" gradientUnits="userSpaceOnUse" x1="412.7044" y1="271.0023" x2="431.2531" y2="271.0023">
			<stop  offset="0" style="stop-color:#CED5EF"/>
			<stop  offset="0.3714" style="stop-color:#D5DDF1"/>
			<stop  offset="0.8656" style="stop-color:#DAE3F2"/>
		</linearGradient>
		<path class="st37" d="M431,274.7l-17.9-10.4c-0.2-0.1-0.4,0-0.4,0.2v2.1c0,0.3,0.1,0.5,0.3,0.6l17.7,10.3c0.2,0.1,0.5,0,0.5-0.3
			v-2.1C431.3,275,431.2,274.8,431,274.7z"/>
		<linearGradient id="SVGID_15_" gradientUnits="userSpaceOnUse" x1="371.3391" y1="252.9038" x2="410.2307" y2="252.9038">
			<stop  offset="0" style="stop-color:#CED5EF"/>
			<stop  offset="0.3714" style="stop-color:#D5DDF1"/>
			<stop  offset="0.8656" style="stop-color:#DAE3F2"/>
		</linearGradient>
		<path class="st38" d="M371.3,240.7v2c0,0.2,0.1,0.4,0.3,0.6l38.1,22.2c0.2,0.1,0.5,0,0.5-0.3v-2c0-0.2-0.1-0.5-0.3-0.6l-38.1-22.1
			C371.6,240.2,371.3,240.4,371.3,240.7z"/>
		<linearGradient id="SVGID_16_" gradientUnits="userSpaceOnUse" x1="371.3403" y1="253.9664" x2="435.259" y2="253.9664">
			<stop  offset="0" style="stop-color:#CED5EF"/>
			<stop  offset="0.3714" style="stop-color:#D5DDF1"/>
			<stop  offset="0.8656" style="stop-color:#DAE3F2"/>
		</linearGradient>
		<path class="st39" d="M371.7,237.1l63.1,36.7c0.2,0.1,0.5,0,0.5-0.3v-2.1c0-0.2-0.1-0.4-0.3-0.5l-63.2-36.7
			c-0.2-0.1-0.5,0-0.5,0.3v2.1C371.3,236.7,371.5,237,371.7,237.1z"/>
		<linearGradient id="SVGID_17_" gradientUnits="userSpaceOnUse" x1="371.3403" y1="246.5907" x2="431.2574" y2="246.5907">
			<stop  offset="0" style="stop-color:#CED5EF"/>
			<stop  offset="0.3714" style="stop-color:#D5DDF1"/>
			<stop  offset="0.8656" style="stop-color:#DAE3F2"/>
		</linearGradient>
		<path class="st40" d="M371.7,230.9l59.1,34.4c0.2,0.1,0.5,0,0.5-0.3v-2.1c0-0.2-0.1-0.4-0.3-0.5L371.8,228c-0.2-0.1-0.5,0-0.5,0.3
			v2.1C371.3,230.5,371.5,230.8,371.7,230.9z"/>
		<linearGradient id="SVGID_18_" gradientUnits="userSpaceOnUse" x1="371.3403" y1="240.388" x2="431.2574" y2="240.388">
			<stop  offset="0" style="stop-color:#CED5EF"/>
			<stop  offset="0.3714" style="stop-color:#D5DDF1"/>
			<stop  offset="0.8656" style="stop-color:#DAE3F2"/>
		</linearGradient>
		<path class="st41" d="M371.7,224.7l59.1,34.4c0.2,0.1,0.5,0,0.5-0.3v-2.1c0-0.2-0.1-0.4-0.3-0.5l-59.2-34.4
			c-0.2-0.1-0.5,0-0.5,0.3v2.1C371.3,224.3,371.5,224.5,371.7,224.7z"/>
		<linearGradient id="SVGID_19_" gradientUnits="userSpaceOnUse" x1="371.3403" y1="282.8911" x2="431.2574" y2="282.8911">
			<stop  offset="0" style="stop-color:#CED5EF"/>
			<stop  offset="0.3714" style="stop-color:#D5DDF1"/>
			<stop  offset="0.8656" style="stop-color:#DAE3F2"/>
		</linearGradient>
		<path class="st42" d="M371.7,267.2l59.1,34.4c0.2,0.1,0.5,0,0.5-0.3v-2.1c0-0.2-0.1-0.4-0.3-0.5l-59.2-34.4
			c-0.2-0.1-0.5,0-0.5,0.3v2.1C371.3,266.8,371.5,267.1,371.7,267.2z"/>
		<linearGradient id="SVGID_20_" gradientUnits="userSpaceOnUse" x1="370.8266" y1="291.3158" x2="440.6511" y2="291.3158">
			<stop  offset="0" style="stop-color:#CED5EF"/>
			<stop  offset="0.3714" style="stop-color:#D5DDF1"/>
			<stop  offset="0.8656" style="stop-color:#DAE3F2"/>
		</linearGradient>
		<path class="st43" d="M371.3,272.8l69,39.9c0.3,0.2,0.3,0,0.4-0.1c0,0,0,0,0,0c0-0.5,0.1-1,0.1-1.4v-0.8c0-0.3-0.1-0.4-0.2-0.5
			c0,0,0,0,0,0l-68.9-39.9c-0.2-0.1-0.4,0-0.5,0.3c-0.1,0.6-0.1,1.1-0.2,1.7C370.8,272.2,370.9,272.6,371.3,272.8z"/>
		<linearGradient id="SVGID_21_" gradientUnits="userSpaceOnUse" x1="369.4284" y1="296.2491" x2="440.1549" y2="296.2491">
			<stop  offset="0" style="stop-color:#CED5EF"/>
			<stop  offset="0.3714" style="stop-color:#D5DDF1"/>
			<stop  offset="0.8656" style="stop-color:#DAE3F2"/>
		</linearGradient>
		<path class="st44" d="M369.8,277.5l69.2,40.1c0.3,0.2,0.7,0,0.8-0.3c0.2-0.5,0.3-1,0.4-1.5c0.1-0.3-0.1-0.5-0.3-0.7l-69.3-40.1
			c-0.2-0.1-0.4,0-0.5,0.2c-0.2,0.5-0.3,1-0.5,1.4C369.3,276.9,369.5,277.3,369.8,277.5z"/>
		<linearGradient id="SVGID_22_" gradientUnits="userSpaceOnUse" x1="371.3403" y1="276.6884" x2="431.2574" y2="276.6884">
			<stop  offset="0" style="stop-color:#CED5EF"/>
			<stop  offset="0.3714" style="stop-color:#D5DDF1"/>
			<stop  offset="0.8656" style="stop-color:#DAE3F2"/>
		</linearGradient>
		<path class="st45" d="M371.7,261l59.1,34.4c0.2,0.1,0.5,0,0.5-0.3v-2.1c0-0.2-0.1-0.4-0.3-0.5l-59.2-34.4c-0.2-0.1-0.5,0-0.5,0.3
			v2.1C371.3,260.6,371.5,260.8,371.7,261z"/>
		<linearGradient id="SVGID_23_" gradientUnits="userSpaceOnUse" x1="371.3403" y1="270.4856" x2="431.2574" y2="270.4856">
			<stop  offset="0" style="stop-color:#CED5EF"/>
			<stop  offset="0.3714" style="stop-color:#D5DDF1"/>
			<stop  offset="0.8656" style="stop-color:#DAE3F2"/>
		</linearGradient>
		<path class="st46" d="M371.7,254.8l59.1,34.4c0.2,0.1,0.5,0,0.5-0.3v-2.1c0-0.2-0.1-0.4-0.3-0.5l-59.2-34.4
			c-0.2-0.1-0.5,0-0.5,0.3v2.1C371.3,254.4,371.5,254.6,371.7,254.8z"/>
		<linearGradient id="SVGID_24_" gradientUnits="userSpaceOnUse" x1="406.2826" y1="274.4108" x2="431.2531" y2="274.4108">
			<stop  offset="0" style="stop-color:#CED5EF"/>
			<stop  offset="0.3714" style="stop-color:#D5DDF1"/>
			<stop  offset="0.8656" style="stop-color:#DAE3F2"/>
		</linearGradient>
		<path class="st47" d="M431,280l-24.4-14.1c-0.1-0.1-0.3,0-0.3,0.2v2.4c0,0.2,0.1,0.3,0.2,0.4l24.3,14.1c0.2,0.1,0.5,0,0.5-0.3
			v-2.1C431.3,280.3,431.2,280.1,431,280z"/>
		<linearGradient id="SVGID_25_" gradientUnits="userSpaceOnUse" x1="371.3391" y1="256.3422" x2="403.7986" y2="256.3422">
			<stop  offset="0" style="stop-color:#CED5EF"/>
			<stop  offset="0.3714" style="stop-color:#D5DDF1"/>
			<stop  offset="0.8656" style="stop-color:#DAE3F2"/>
		</linearGradient>
		<path class="st48" d="M371.3,245.9v2.1c0,0.2,0.1,0.4,0.3,0.5l31.7,18.5c0.2,0.1,0.4,0,0.4-0.2v-2.3c0-0.2-0.1-0.3-0.2-0.4
			l-31.7-18.5C371.6,245.5,371.3,245.7,371.3,245.9z"/>
		<linearGradient id="SVGID_26_" gradientUnits="userSpaceOnUse" x1="437.1335" y1="288.2596" x2="466.5173" y2="288.2596">
			<stop  offset="0" style="stop-color:#CED5EF"/>
			<stop  offset="0.3714" style="stop-color:#D5DDF1"/>
			<stop  offset="0.8656" style="stop-color:#DAE3F2"/>
		</linearGradient>
		<path class="st49" d="M437.4,281.4L466,298c0.2,0.1,0.5,0,0.5-0.3v-2.1c0-0.2-0.1-0.4-0.3-0.5l-28.6-16.6c-0.2-0.1-0.5,0-0.5,0.3
			v2.1C437.1,281.1,437.3,281.3,437.4,281.4z"/>
		<linearGradient id="SVGID_27_" gradientUnits="userSpaceOnUse" x1="437.1335" y1="282.0569" x2="466.5173" y2="282.0569">
			<stop  offset="0" style="stop-color:#CED5EF"/>
			<stop  offset="0.3714" style="stop-color:#D5DDF1"/>
			<stop  offset="0.8656" style="stop-color:#DAE3F2"/>
		</linearGradient>
		<path class="st50" d="M437.4,275.2l28.6,16.6c0.2,0.1,0.5,0,0.5-0.3v-2.1c0-0.2-0.1-0.4-0.3-0.5l-28.6-16.6
			c-0.2-0.1-0.5,0-0.5,0.3v2.1C437.1,274.9,437.3,275.1,437.4,275.2z"/>
		<linearGradient id="SVGID_28_" gradientUnits="userSpaceOnUse" x1="437.1335" y1="272.6422" x2="466.5173" y2="272.6422">
			<stop  offset="0" style="stop-color:#CED5EF"/>
			<stop  offset="0.3714" style="stop-color:#D5DDF1"/>
			<stop  offset="0.8656" style="stop-color:#DAE3F2"/>
		</linearGradient>
		<path class="st51" d="M437.4,269.7l28.6,16.6c0.2,0.1,0.5,0,0.5-0.3v-10c0-0.2-0.1-0.4-0.3-0.5l-28.6-16.6c-0.2-0.1-0.5,0-0.5,0.3
			v9.9C437.1,269.4,437.3,269.6,437.4,269.7z"/>
		<linearGradient id="SVGID_29_" gradientUnits="userSpaceOnUse" x1="437.1335" y1="311.0262" x2="462.6012" y2="311.0262">
			<stop  offset="0" style="stop-color:#CED5EF"/>
			<stop  offset="0.3714" style="stop-color:#D5DDF1"/>
			<stop  offset="0.8656" style="stop-color:#DAE3F2"/>
		</linearGradient>
		<path class="st52" d="M437.4,305.3l24.7,14.4c0.2,0.1,0.5,0,0.5-0.3v-2.1c0-0.2-0.1-0.4-0.3-0.5l-24.7-14.4
			c-0.2-0.1-0.5,0-0.5,0.3v2.1C437.1,305,437.3,305.2,437.4,305.3z"/>
		<linearGradient id="SVGID_30_" gradientUnits="userSpaceOnUse" x1="437.1335" y1="305.9518" x2="466.5173" y2="305.9518">
			<stop  offset="0" style="stop-color:#CED5EF"/>
			<stop  offset="0.3714" style="stop-color:#D5DDF1"/>
			<stop  offset="0.8656" style="stop-color:#DAE3F2"/>
		</linearGradient>
		<path class="st53" d="M437.4,299.1l28.6,16.6c0.2,0.1,0.5,0,0.5-0.3v-2.1c0-0.2-0.1-0.4-0.3-0.5l-28.6-16.6
			c-0.2-0.1-0.5,0-0.5,0.3v2.1C437.1,298.8,437.3,299,437.4,299.1z"/>
		<linearGradient id="SVGID_31_" gradientUnits="userSpaceOnUse" x1="437.1335" y1="299.7491" x2="466.5173" y2="299.7491">
			<stop  offset="0" style="stop-color:#CED5EF"/>
			<stop  offset="0.3714" style="stop-color:#D5DDF1"/>
			<stop  offset="0.8656" style="stop-color:#DAE3F2"/>
		</linearGradient>
		<path class="st54" d="M437.4,292.9l28.6,16.6c0.2,0.1,0.5,0,0.5-0.3v-2.1c0-0.2-0.1-0.4-0.3-0.5L437.6,290c-0.2-0.1-0.5,0-0.5,0.3
			v2.1C437.1,292.6,437.3,292.8,437.4,292.9z"/>
		<linearGradient id="SVGID_32_" gradientUnits="userSpaceOnUse" x1="437.1335" y1="293.5464" x2="466.5173" y2="293.5464">
			<stop  offset="0" style="stop-color:#CED5EF"/>
			<stop  offset="0.3714" style="stop-color:#D5DDF1"/>
			<stop  offset="0.8656" style="stop-color:#DAE3F2"/>
		</linearGradient>
		<path class="st55" d="M437.4,286.7l28.6,16.6c0.2,0.1,0.5,0,0.5-0.3v-2.1c0-0.2-0.1-0.4-0.3-0.5l-28.6-16.6
			c-0.2-0.1-0.5,0-0.5,0.3v2.1C437.1,286.4,437.3,286.6,437.4,286.7z"/>
		<linearGradient id="SVGID_33_" gradientUnits="userSpaceOnUse" x1="371.3391" y1="225.4613" x2="425.0029" y2="225.4613">
			<stop  offset="0" style="stop-color:#CED5EF"/>
			<stop  offset="0.3714" style="stop-color:#D5DDF1"/>
			<stop  offset="0.8656" style="stop-color:#DAE3F2"/>
		</linearGradient>
		<path class="st56" d="M371.3,208.9v2.1c0,0.2,0.1,0.4,0.3,0.5l52.7,30.7c0.3,0.2,0.6-0.1,0.6-0.4v-1.8c0-0.3-0.1-0.5-0.4-0.7
			l-52.8-30.8C371.6,208.5,371.3,208.7,371.3,208.9z"/>
		<linearGradient id="SVGID_34_" gradientUnits="userSpaceOnUse" x1="371.3403" y1="244.5272" x2="467.1456" y2="244.5272">
			<stop  offset="0" style="stop-color:#CED5EF"/>
			<stop  offset="0.3714" style="stop-color:#D5DDF1"/>
			<stop  offset="0.8656" style="stop-color:#DAE3F2"/>
		</linearGradient>
		<path class="st57" d="M371.7,218.3l95,55.3c0.2,0.1,0.5,0,0.5-0.3v-2.1c0-0.2-0.1-0.4-0.3-0.5l-95-55.3c-0.2-0.1-0.5,0-0.5,0.3
			v2.1C371.3,218,371.5,218.2,371.7,218.3z"/>
		<linearGradient id="SVGID_35_" gradientUnits="userSpaceOnUse" x1="441.4193" y1="328.3696" x2="466.5174" y2="328.3696">
			<stop  offset="0" style="stop-color:#CED5EF"/>
			<stop  offset="0.3714" style="stop-color:#D5DDF1"/>
			<stop  offset="0.8656" style="stop-color:#DAE3F2"/>
		</linearGradient>
		<path class="st58" d="M441.4,321.3c2.8,2.1,4.7,9,4.7,13.1v3.5c0,0.2,0.1,0.3,0.2,0.4c1.4,0.8,9.9,5.7,11.4,6.6
			c0.1,0.1,0.3,0.1,0.5,0c1.7-1.2,3.3-2.6,4.5-4.2c0.5-0.6,0.9-1.2,1.3-1.9c0,0,0,0,0,0c2.5-4.3,2.6-14,2.1-14.3L445,312.1
			c0,0-0.4-0.2-0.6-0.2c-0.3,0-0.5,0.1-0.6,0.8c0,0,0,0.1,0,0.1v0C443.6,315.7,442.8,318.7,441.4,321.3z"/>
		<linearGradient id="SVGID_36_" gradientUnits="userSpaceOnUse" x1="446.1642" y1="342.9811" x2="456.7158" y2="342.9811">
			<stop  offset="0" style="stop-color:#CED5EF"/>
			<stop  offset="0.3714" style="stop-color:#D5DDF1"/>
			<stop  offset="0.8656" style="stop-color:#DAE3F2"/>
		</linearGradient>
		<path class="st59" d="M446.2,339.7v0.5c0,0.5,0,1,0.1,1.4l7.4,4.2c0.8,0.4,1.7,0.5,2.6,0.1c0.2-0.1,0.3-0.1,0.5-0.2L446.2,339.7z"
			/>
		<linearGradient id="SVGID_37_" gradientUnits="userSpaceOnUse" x1="365.2976" y1="317.0921" x2="428.3656" y2="317.0921">
			<stop  offset="0" style="stop-color:#CED5EF"/>
			<stop  offset="0.3714" style="stop-color:#D5DDF1"/>
			<stop  offset="0.8656" style="stop-color:#DAE3F2"/>
		</linearGradient>
		<path class="st60" d="M366.2,319.4l38.8,22.7c0.7,0.4,1.7,0,2-0.8c0.8-2.6,1.8-5.2,3.1-7.6c3.3-6.3,8.3-11.9,14.5-15.9
			c1.1-0.7,2.1-1.2,3.2-1.5c0.6-0.2,0.7-1,0.2-1.3l-6.2-3.6l-21.3-12.4l-10.8-6.3c-0.8-0.5-1.8-0.7-2.8-0.5
			c-1.4,0.3-2.8,0.9-4.1,1.8c-6.2,4-11.2,9.6-14.5,15.9c-1.2,2.4-2.2,4.8-3,7.4C365.1,318,365.5,318.9,366.2,319.4z"/>
		<linearGradient id="SVGID_38_" gradientUnits="userSpaceOnUse" x1="329.9906" y1="277.827" x2="381.3149" y2="277.827">
			<stop  offset="0" style="stop-color:#CED5EF"/>
			<stop  offset="0.3714" style="stop-color:#D5DDF1"/>
			<stop  offset="0.8656" style="stop-color:#DAE3F2"/>
		</linearGradient>
		<path class="st61" d="M330,264.3l36.7,21.4l11.9,6.9c0.2,0.1,0.5,0.1,0.7,0c0.2-0.2,0.5-0.3,0.7-0.5c0.4-0.3,0.8-0.5,1.2-0.7
			c0,0,0,0,0.1,0c0.2-0.1,0.1-0.2,0-0.2c0,0,0,0,0,0l-14.7-8.5l-33.8-19.7c-0.9,0.3-1.8,0.7-2.7,1.3
			C330.1,264.3,330,264.3,330,264.3z"/>
		<linearGradient id="SVGID_39_" gradientUnits="userSpaceOnUse" x1="325.5927" y1="281.2709" x2="375.9527" y2="281.2709">
			<stop  offset="0" style="stop-color:#CED5EF"/>
			<stop  offset="0.3714" style="stop-color:#D5DDF1"/>
			<stop  offset="0.8656" style="stop-color:#DAE3F2"/>
		</linearGradient>
		<path class="st62" d="M325.7,267.5c-0.2,0.2-0.2,0.5,0,0.6l41,23.9l7.2,4.2c0.3,0.2,0.6,0.1,0.8-0.1c0.3-0.3,0.6-0.5,0.9-0.8
			c0.4-0.3,0.4-0.9-0.1-1.2l-8.9-5.2l-38.8-22.6c-0.3-0.1-0.6-0.1-0.8,0.1C326.6,266.8,326.2,267.1,325.7,267.5z"/>
		<linearGradient id="SVGID_40_" gradientUnits="userSpaceOnUse" x1="321.7797" y1="285.1629" x2="372.0028" y2="285.1629">
			<stop  offset="0" style="stop-color:#CED5EF"/>
			<stop  offset="0.3714" style="stop-color:#D5DDF1"/>
			<stop  offset="0.8656" style="stop-color:#DAE3F2"/>
		</linearGradient>
		<path class="st63" d="M322.1,272.3l47.8,27.9c0.3,0.2,0.8,0.1,1-0.2c0.3-0.3,0.5-0.6,0.8-0.9c0.3-0.3,0.2-0.7-0.1-0.9l-2.7-1.6
			l-45.3-26.4c-0.3-0.2-0.8-0.1-1.1,0.2c-0.2,0.2-0.5,0.5-0.7,0.7C321.7,271.5,321.7,272,322.1,272.3z"/>
		<linearGradient id="SVGID_41_" gradientUnits="userSpaceOnUse" x1="318.275" y1="289.4144" x2="368.5311" y2="289.4144">
			<stop  offset="0" style="stop-color:#CED5EF"/>
			<stop  offset="0.3714" style="stop-color:#D5DDF1"/>
			<stop  offset="0.8656" style="stop-color:#DAE3F2"/>
		</linearGradient>
		<path class="st64" d="M318.6,276.4l48.1,28.1c0.4,0.2,0.9,0.1,1.1-0.3c0.2-0.3,0.4-0.6,0.6-0.9c0.2-0.3,0.1-0.8-0.2-0.9l-48-28
			c-0.4-0.2-0.8-0.1-1.1,0.2c-0.2,0.3-0.5,0.7-0.7,1C318.2,275.9,318.3,276.2,318.6,276.4z"/>
		<linearGradient id="SVGID_42_" gradientUnits="userSpaceOnUse" x1="315.4378" y1="293.9443" x2="365.7544" y2="293.9443">
			<stop  offset="0" style="stop-color:#CED5EF"/>
			<stop  offset="0.3714" style="stop-color:#D5DDF1"/>
			<stop  offset="0.8656" style="stop-color:#DAE3F2"/>
		</linearGradient>
		<path class="st65" d="M315.6,281C315.6,281,315.6,281,315.6,281l48.4,28.2c0.4,0.2,0.8,0.1,1.1-0.3c0.1-0.3,0.3-0.5,0.4-0.8
			c0.1-0.1,0.1-0.2,0.2-0.3c0.2-0.4,0-0.6-0.1-0.7c0,0,0,0,0,0l-48.7-28.4c-0.2-0.1-0.4,0-0.5,0.1c-0.3,0.5-0.6,1.1-0.9,1.6
			c0,0,0,0,0,0C315.4,280.5,315.4,280.8,315.6,281z"/>
		<linearGradient id="SVGID_43_" gradientUnits="userSpaceOnUse" x1="313.2348" y1="298.998" x2="363.5388" y2="298.998">
			<stop  offset="0" style="stop-color:#CED5EF"/>
			<stop  offset="0.3714" style="stop-color:#D5DDF1"/>
			<stop  offset="0.8656" style="stop-color:#DAE3F2"/>
		</linearGradient>
		<path class="st66" d="M313.4,285.9l49.1,28.6c0.1,0.1,0.3,0,0.4-0.2c0.2-0.6,0.4-1.3,0.7-1.9c0.1-0.2,0-0.3-0.1-0.4l-49-28.5
			c-0.2-0.1-0.4,0-0.5,0.2c-0.3,0.6-0.5,1.2-0.7,1.9C313.2,285.7,313.3,285.8,313.4,285.9z"/>
		<linearGradient id="SVGID_44_" gradientUnits="userSpaceOnUse" x1="311.1293" y1="321.287" x2="405.4316" y2="321.287">
			<stop  offset="0" style="stop-color:#CED5EF"/>
			<stop  offset="0.3714" style="stop-color:#D5DDF1"/>
			<stop  offset="0.8656" style="stop-color:#DAE3F2"/>
		</linearGradient>
		<path class="st67" d="M311.1,294.7c0,0.3,0.1,0.7,0.4,0.8l93.4,54.3c0.2,0.1,0.5,0,0.5-0.3v-2.1c0-0.2-0.1-0.4-0.3-0.5L312,292.8
			c-0.2-0.1-0.6,0-0.6,0.3C311.3,293.6,311.2,294.1,311.1,294.7z"/>
		<linearGradient id="SVGID_45_" gradientUnits="userSpaceOnUse" x1="310.7836" y1="328.6588" x2="405.4316" y2="328.6588">
			<stop  offset="0" style="stop-color:#CED5EF"/>
			<stop  offset="0.3714" style="stop-color:#D5DDF1"/>
			<stop  offset="0.8656" style="stop-color:#DAE3F2"/>
		</linearGradient>
		<path class="st68" d="M310.8,302.1c0,0.3,0.1,0.5,0.3,0.6l93.8,54.6c0.1,0,0.1,0,0.2,0c0.2,0,0.3-0.1,0.3-0.3V355
			c0-0.1,0-0.2-0.1-0.3c0-0.1-0.1-0.1-0.2-0.2L311.4,300c-0.2-0.1-0.6,0-0.6,0.3C310.9,300.9,310.8,301.5,310.8,302.1z"/>
		<linearGradient id="SVGID_46_" gradientUnits="userSpaceOnUse" x1="309.7165" y1="335.4872" x2="404.3274" y2="335.4872">
			<stop  offset="0" style="stop-color:#CED5EF"/>
			<stop  offset="0.3714" style="stop-color:#D5DDF1"/>
			<stop  offset="0.8656" style="stop-color:#DAE3F2"/>
		</linearGradient>
		<path class="st69" d="M309.7,308.9c-0.1,0.3,0.1,0.6,0.3,0.8l93.2,54.2c0.2,0.1,0.5,0,0.6-0.2c0.2-0.6,0.3-1.1,0.4-1.7
			c0.1-0.2-0.1-0.5-0.3-0.6l-93.3-54.3c-0.3-0.1-0.6,0-0.6,0.3C310,307.9,309.9,308.4,309.7,308.9z"/>
		<linearGradient id="SVGID_47_" gradientUnits="userSpaceOnUse" x1="307.6183" y1="341.8017" x2="402.2253" y2="341.8017">
			<stop  offset="0" style="stop-color:#CED5EF"/>
			<stop  offset="0.3714" style="stop-color:#D5DDF1"/>
			<stop  offset="0.8656" style="stop-color:#DAE3F2"/>
		</linearGradient>
		<path class="st70" d="M307.7,315.1c-0.2,0.4,0,0.8,0.3,1l92.9,54.1c0.2,0.1,0.5,0,0.6-0.2c0.3-0.5,0.5-1,0.7-1.5
			c0.1-0.3,0-0.6-0.2-0.7l-93.1-54.1c-0.3-0.1-0.6,0-0.7,0.3C308,314.2,307.9,314.6,307.7,315.1z"/>
		<linearGradient id="SVGID_48_" gradientUnits="userSpaceOnUse" x1="304.4806" y1="347.5503" x2="399.2248" y2="347.5503">
			<stop  offset="0" style="stop-color:#CED5EF"/>
			<stop  offset="0.3714" style="stop-color:#D5DDF1"/>
			<stop  offset="0.8656" style="stop-color:#DAE3F2"/>
		</linearGradient>
		<path class="st71" d="M304.6,320.9c-0.2,0.2-0.1,0.5,0.2,0.7l92.9,54c0.2,0.1,0.4,0,0.6-0.1c0.3-0.5,0.6-0.9,1-1.4
			c0.1-0.2,0.1-0.5-0.1-0.6l-92.9-54c-0.3-0.1-0.6-0.1-0.7,0.2C305.1,320.1,304.8,320.5,304.6,320.9z"/>
		<linearGradient id="SVGID_49_" gradientUnits="userSpaceOnUse" x1="300.5017" y1="352.7842" x2="395.2699" y2="352.7842">
			<stop  offset="0" style="stop-color:#CED5EF"/>
			<stop  offset="0.3714" style="stop-color:#D5DDF1"/>
			<stop  offset="0.8656" style="stop-color:#DAE3F2"/>
		</linearGradient>
		<path class="st72" d="M300.6,326.1c-0.2,0.2-0.2,0.6,0.1,0.7l92.7,53.9c0.2,0.1,0.4,0.1,0.6-0.1c0.4-0.4,0.8-0.8,1.2-1.3
			c0.2-0.2,0.1-0.6-0.1-0.7l-92.6-53.9c-0.3-0.2-0.6-0.1-0.8,0.2C301.3,325.4,301,325.8,300.6,326.1z"/>
		<linearGradient id="SVGID_50_" gradientUnits="userSpaceOnUse" x1="344.7638" y1="371.7426" x2="390.3824" y2="371.7426">
			<stop  offset="0" style="stop-color:#CED5EF"/>
			<stop  offset="0.3714" style="stop-color:#D5DDF1"/>
			<stop  offset="0.8656" style="stop-color:#DAE3F2"/>
		</linearGradient>
		<path class="st73" d="M345,359.3c-0.3,0.2-0.3,0.6,0,0.8l43.2,25.1c0.2,0.1,0.4,0.1,0.5,0c0.5-0.4,1-0.8,1.5-1.2
			c0.2-0.2,0.2-0.5,0-0.6l-43.3-25.1c-0.3-0.2-0.6-0.1-0.8,0.1C345.7,358.7,345.3,359,345,359.3z"/>
	</g>
	<path class="st13" d="M477,196.8c-3.9,1.9-6.8,5.8-6.8,10.7v118.7c0,11.1-3.7,17.6-9.7,21.6c-6.3,4.2-14.4-0.1-14.4-7.5
		c0,0,0-5.9,0-5.9c0-4-0.5-8.3-3.2-11.4c-2.3-2.7-6-4.4-9.6-4c-3.1,0.3-6,1.9-8.5,3.8c-7.7,5.7-13.3,14.3-15.3,23.7
		c-1.7,7.7-1.1,15.8-3.6,23.3c-2.9,8.5-9.7,15.2-16.9,20.6c-4.4,3.3-21.6,15.5-21.6,15.5l0.1,0.8c0,0,14.1-9.8,21-14.8
		c6.9-5.1,14-11.7,17.4-19.5c4.2-9.9,2.5-20.9,6-31c2.6-7.7,8.2-14.3,15-18.7c3.1-2,6.4-3.7,10-2.7c3,0.8,5.3,3.3,6.6,6.1
		c1.9,4.1,2.1,8.5,2.2,12.9c0.1,3.4,0.5,6.9,3.4,9.1c5.3,4,9.1,2.2,11.8,0.8c0.9-0.4,3.6-1.8,6.8-7c3.8-6.1,3.3-16.7,3.3-16.7
		s0.2-116,0.2-117.5c0-1.3,0.5-7.1,6-9.9l19.5-11.3v-0.6L477,196.8z"/>
	<text transform="matrix(1 0.5774 0 1 374.8705 169.5405)" class="st13 st74 st75">profile</text>
	<g>
		<path class="st4" d="M444.4,217.1c0,2.9,2.3,6.6,5.2,8.3c2.9,1.7,5.2,0.7,5.2-2.2s-2.3-6.6-5.2-8.3
			C446.7,213.2,444.4,214.2,444.4,217.1z"/>
		<path class="st4" d="M437.7,231.7l23.7,13.7c0-6.5-5.3-14.9-11.9-18.6c-3.3-1.9-6.2-2.3-8.4-1.3
			C439.1,226.3,437.7,228.4,437.7,231.7z"/>
	</g>
	<polygon class="st10" points="438,243 439.2,245.9 441.7,247.7 439.8,248.5 440.3,251.2 438,248.7 435.8,248.6 436.2,246.4 
		434.4,243.5 436.9,244.6 	"/>
	<polygon class="st10" points="447.8,248.7 448.9,251.6 451.4,253.4 449.6,254.1 450,256.9 447.8,254.4 445.5,254.3 446,252 
		444.2,249.2 446.7,250.3 	"/>
	<polygon class="st10" points="457.6,254.3 458.7,257.3 461.2,259.1 459.4,259.8 459.8,262.6 457.6,260.1 455.3,260 455.7,257.7 
		453.9,254.9 456.4,256 	"/>
</g>
<g>
	<g id="XMLID_241_" class="st76">
		<path class="st77" d="M332,112.5c-0.2,0-0.5-0.1-0.7-0.3l-43-24.7c-1-0.6-1.7-1.7-1.7-2.8V46.2c0-0.7,0.3-1.2,0.9-1.5
			c0.5-0.3,1.2-0.2,1.8,0.1l42.9,24.7c1,0.6,1.7,1.7,1.7,2.8v38.6c0,0.6-0.3,1.2-0.9,1.5C332.8,112.5,332.4,112.6,332,112.5z"/>
	</g>
	<polygon class="st10" points="309.5,66.5 312.8,75.1 320.1,80.4 314.8,82.5 316.1,90.5 309.5,83.3 302.9,83 304.2,76.4 298.9,68.1 
		306.2,71.3 	"/>
</g>
<path class="st78" d="M444.1,170.6c1.1,2.5,0,4.5-2.5,4.5c-2.5,0-5.4-2-6.5-4.5c-1.1-2.5,0-4.5,2.5-4.5
	C440,166.1,442.9,168.1,444.1,170.6z"/>
<path class="st78" d="M526,369.9c1.1,2.5,0,4.5-2.5,4.5s-5.4-2-6.5-4.5c-1.1-2.5,0-4.5,2.5-4.5S524.9,367.4,526,369.9z"/>
<path class="st78" d="M234.6,98.9c1.1,2.5,0,4.5-2.5,4.5c-2.5,0-5.4-2-6.5-4.5s0-4.5,2.5-4.5S233.5,96.4,234.6,98.9z"/>
<g>
	<line class="st79" x1="352.7" y1="94.8" x2="352.7" y2="103"/>
	<line class="st79" x1="356.6" y1="100.9" x2="348.9" y2="96.4"/>
</g>
<g>
	<line class="st79" x1="478.6" y1="136.7" x2="478.6" y2="145"/>
	<line class="st79" x1="482.4" y1="142.8" x2="474.7" y2="138.4"/>
</g>
<g>
	<line class="st79" x1="259.9" y1="63.1" x2="259.9" y2="71.3"/>
	<line class="st79" x1="263.7" y1="69.2" x2="256" y2="64.8"/>
</g>
<g>
	<line class="st79" x1="552.5" y1="352.4" x2="552.5" y2="360.6"/>
	<line class="st79" x1="556.3" y1="358.4" x2="548.6" y2="354"/>
</g>
<g>
	<line class="st79" x1="515.9" y1="287.2" x2="515.9" y2="295.4"/>
	<line class="st79" x1="519.8" y1="293.3" x2="512" y2="288.8"/>
</g>
<g>
	<linearGradient id="SVGID_51_" gradientUnits="userSpaceOnUse" x1="550.6061" y1="459.4992" x2="420.3918" y2="534.6785">
		<stop  offset="0" style="stop-color:#B4BBE1;stop-opacity:0.1"/>
		<stop  offset="1" style="stop-color:#B4BBE1;stop-opacity:0.3"/>
	</linearGradient>
	<path class="st80" d="M504.6,440.7l78.5,45.3c3.1,1.8,3.1,6.2,0,8l-116.1,67c-4.2,2.4-9.4,2.5-13.7,0l-79.2-45
		c-3.1-1.8-3.1-6.2,0-8l116.7-67.4C495.1,438.3,500.3,438.3,504.6,440.7z"/>
	<path class="st13" d="M504.6,419.7l80.8,46.1c0,0,0,1.6,0,3.2c0,1.6-0.8,3.1-2.3,4L467,540c-4.2,2.4-9.4,2.5-13.7,0l-79.2-45
		c-1.5-0.9-2.3-2.4-2.3-3.9c0-1.6,0-3.3,0-3.3l119-68.3C495.1,417.3,500.3,417.3,504.6,419.7z"/>
	<path class="st14" d="M504.6,416.6l78.5,45.3c3.1,1.8,3.1,6.2,0,8l-116.1,67c-4.2,2.4-9.4,2.5-13.7,0l-79.2-45
		c-3.1-1.8-3.1-6.2,0-8l116.7-67.4C495.1,414.1,500.3,414.1,504.6,416.6z"/>
	<polygon class="st11" points="495.2,423.1 570.9,466.8 464.4,528.3 388.1,484.9 	"/>
	<g>
		<g>
			
				<ellipse transform="matrix(0.1401 -0.9901 0.9901 0.1401 -75.5256 878.5163)" class="st81" cx="468" cy="482.7" rx="25.5" ry="45"/>
			<path class="st82" d="M451.9,466.6c14-3.8,32.6,0.4,41.5,9.3c8.9,8.9,4.7,19.1-9.3,22.9c-14,3.8-32.6-0.4-41.5-9.3
				C433.7,480.7,437.9,470.4,451.9,466.6z"/>
			<path class="st83" d="M457.9,472.6c8.8-2.4,20.4,0.3,26,5.8c5.6,5.6,3,12-5.8,14.4c-8.8,2.4-20.4-0.3-26-5.8
				S449.1,475,457.9,472.6z"/>
		</g>
		<polygon class="st10" points="459.6,474.4 467.6,478.1 474.9,476.3 474.1,482 480.7,486.9 472.3,486.7 469,491.6 464.6,485.8 
			456,483.9 461.7,480.5 		"/>
	</g>
	<g>
		<path class="st84" d="M413.1,517.3l0-3.2l17.4-10.7c0.2-0.1,0.4-0.2,0.5-0.3c0.4-0.3,0.8-0.8,1-1.3c0.2-0.5,0.3-1.2,0.2-1.8
			l5.9-3.6c0.1,0,0.2-0.1,0.3-0.2c0.1-0.1,0.2-0.2,0.2-0.2c3.6,1.5,8,2.4,12.9,2.2c11.2-0.3,20.2-5.8,20.5-12.3l0,0l0-0.6
			c0,0,0,0,0,0l-0.1-3.6c0,0,0,0,0,0v-0.2l0,0c-0.3-6.7-9.8-11.8-21.3-11.5c-11.5,0.3-20.7,6.1-20.5,12.9l0.1,3.7
			c0.1,2.6,1.5,4.9,3.8,6.8l-4.4,2.8c-0.6-0.3-1.2-0.4-1.7-0.3c-0.3,0-0.6,0.1-0.9,0.2c0,0-0.1,0-0.1,0.1l-0.2,0.1c0,0,0,0-0.1,0
			c0,0,0,0-0.1,0l-21.6,13.3v3.2L413.1,517.3z"/>
		<path class="st13" d="M427.7,472.5c0,0.6,0.1,1.3,0.3,1.9c1.8,6.1,10.9,10.6,21.9,10.2c10.9-0.3,19.8-5.3,21.2-11.5
			c0.1-0.6,0.2-5.8,0.2-5.8s-5.7-11.4-22.2-11.2c-9.9,0.1-21.4,12.4-21.4,12.4S427.7,471.2,427.7,472.5z M431.2,472.4
			c0-1.5,0.5-3,1.4-4.4c2.7-3.9,9.1-6.7,16.6-6.9c7.5-0.2,14,2.2,17,5.9c1,1.3,1.6,2.8,1.7,4.3c0.2,5.9-7.9,8.2-18,8.5
			C439.7,480.1,431.4,478.3,431.2,472.4z"/>
		<g>
			<linearGradient id="SVGID_52_" gradientUnits="userSpaceOnUse" x1="430.3641" y1="468.0089" x2="468.544" y2="468.0089">
				<stop  offset="0" style="stop-color:#B4BBE1;stop-opacity:0.1"/>
				<stop  offset="1" style="stop-color:#B4BBE1;stop-opacity:0.3"/>
			</linearGradient>
			<path class="st85" d="M430.4,468.6c0.2,6.1,8.9,10.7,19.4,10.4c10.5-0.3,18.9-5.5,18.8-11.5c-0.2-6.1-8.9-10.7-19.4-10.4
				C438.6,457.4,430.2,462.5,430.4,468.6z"/>
			<path class="st86" d="M438.5,459.2c19,0.4,24.7,9.8,26.3,15.1c2.4-1.9,3.8-4.3,3.7-6.8c-0.2-6.1-8.8-10.5-19.4-10.2
				C445.3,457.4,441.4,457.9,438.5,459.2z"/>
			<path class="st87" d="M432.3,468.8c0.2,5.4,7.8,9.5,17.2,9.2c9.3-0.3,16.8-4.8,16.6-10.2c0-0.2,0-0.3,0-0.5
				c-0.5,5-7.7,9.2-16.6,9.4c-9.1,0.3-16.6-3.6-17.1-8.7C432.3,468.3,432.2,468.6,432.3,468.8z"/>
		</g>
		<path class="st13" d="M429.7,464.8l4.9-5.1l14.3-3.5l14.4,2.7l5.2,4.8l1.4,3l-2.1,0.7c0,0-2.4-9.8-18.9-9.3
			c-16.5,0.5-18.3,10.4-18.3,10.4l-2.1-0.6L429.7,464.8z"/>
		<path class="st88" d="M427.7,468.6c0,0.6,0.1,1.3,0.3,1.9c1.8,6.1,10.9,10.6,21.9,10.2c10.9-0.3,19.8-5.3,21.2-11.5
			c0.1-0.6,0.2-1.3,0.2-1.9c-0.2-7.1-10.1-12.5-22.2-12.1C437.1,455.5,427.5,461.5,427.7,468.6z M431.2,468.5c0-1.5,0.5-3,1.4-4.4
			c2.7-3.9,9.1-6.7,16.6-6.9c7.5-0.2,14,2.2,17,5.9c1,1.3,1.6,2.8,1.7,4.3c0.2,5.9-7.9,11-18,11.3
			C439.7,479,431.4,474.4,431.2,468.5z"/>
		<path class="st4" d="M427.7,468.6c0,0.6,0.1,1.3,0.3,1.9c1.8,6.1,10.9,10.6,21.9,10.2c10.9-0.3,19.8-5.3,21.2-11.5
			c0.1-0.6,0.2-1.3,0.2-1.9c-0.2-7.1-10.1-12.5-22.2-12.1C437.1,455.5,427.5,461.5,427.7,468.6z M431.2,468.5c0-1.5,0.5-3,1.4-4.4
			c2.7-3.9,9.1-6.7,16.6-6.9c7.5-0.2,14,2.2,17,5.9c1,1.3,1.6,2.8,1.7,4.3c0.2,5.9-7.9,11-18,11.3
			C439.7,479,431.4,474.4,431.2,468.5z"/>
		<path class="st89" d="M425.1,483.7l0.4,0.6c0,0,0,0,0,0l1.9,2.8l0.5,0.7l8.2-5.1l0,0c0.1-0.1,0.2-0.1,0.3-0.2
			c0.3-0.2,0.4-0.5,0.6-0.8c0.1-0.2,0.1-0.3,0.1-0.5l0,0c0.1-0.5,0-1.1-0.3-1.6c-0.3-0.7-0.8-1.2-1.4-1.4c-0.3-0.1-0.6-0.2-0.9-0.1
			c-0.2,0-0.4,0.1-0.5,0.1c0,0-0.1,0-0.1,0l-0.1,0.1c0,0,0,0,0,0L425.1,483.7z"/>
		<path class="st4" d="M425.1,483.7l0.4,0.6c0,0,0,0,0,0l9.9-6.1c-0.3-0.1-0.6-0.2-0.9-0.1c-0.2,0-0.4,0.1-0.5,0.1c0,0-0.1,0-0.1,0
			l-0.1,0.1c0,0,0,0,0,0L425.1,483.7z"/>
		<path class="st13" d="M427.4,487.1l0.5,0.7l8.2-5.1l0,0c0.1-0.1,0.2-0.1,0.3-0.2c0.3-0.2,0.4-0.5,0.6-0.8c0.1-0.2,0.1-0.3,0.1-0.5
			L427.4,487.1z"/>
		<path class="st90" d="M399.1,498l1.2,2.1l3.1,5.4l24.9-15.4c0,0,0,0,0,0l0,0c0.2-0.1,0.4-0.2,0.5-0.3c0.4-0.3,0.8-0.8,1-1.4
			c0.4-1.1,0.4-2.4-0.2-3.7c-0.2-0.5-0.5-0.9-0.8-1.3c0,0,0,0,0,0c-0.9-1-2.1-1.5-3.2-1.4c-0.3,0-0.6,0.1-0.9,0.3
			c-0.1,0-0.1,0-0.2,0.1l-0.2,0.1c0,0,0,0-0.1,0c0,0,0,0-0.1,0L399.1,498z"/>
		<path class="st91" d="M399.1,498l1.2,2.1l3-0.9l25.4-15.8c0,0,0,0,0,0c0,0,0,0,0,0c-0.9-1-2.1-1.5-3.2-1.4c-0.3,0-0.6,0.1-0.9,0.3
			c-0.1,0-0.1,0-0.2,0.1l-0.2,0.1c0,0,0,0-0.1,0c0,0,0,0-0.1,0L399.1,498z"/>
		<path class="st92" d="M397.8,503.4c1,2.2,3.3,3.2,5,2.4l0,0c0.2-0.1,0.4-0.2,0.5-0.3c0.4-0.3,0.8-0.8,1-1.4
			c0.4-1.1,0.4-2.4-0.2-3.7c-0.9-1.8-2.5-2.8-4.1-2.7c-0.3,0-0.6,0.1-0.9,0.3c-0.1,0-0.1,0.1-0.2,0.1l-0.2,0.1c0,0,0,0-0.1,0
			C397.3,499.2,396.9,501.4,397.8,503.4z"/>
	</g>
	<g>
		<path class="st4" d="M471.3,447.9l24.8,14.3c7.9-6,6.6-10.8,1.2-14.4C488.9,442,479.2,443.3,471.3,447.9z"/>
	</g>
	<g class="st2">
		<g>
			<g>
				<path class="st13" d="M523.4,478.3c-0.1,0-0.3,0-0.4-0.1l-24.4-14.2c-0.4-0.2-0.5-0.7-0.3-1c0.2-0.4,0.7-0.5,1-0.3l24.4,14.2
					c0.4,0.2,0.5,0.7,0.3,1C524,478.1,523.7,478.3,523.4,478.3z"/>
			</g>
		</g>
		<g>
			<g>
				<path class="st13" d="M526.2,476.7c-0.1,0-0.3,0-0.4-0.1l-24.4-14.2c-0.4-0.2-0.5-0.7-0.3-1c0.2-0.4,0.7-0.5,1-0.3l24.4,14.2
					c0.4,0.2,0.5,0.7,0.3,1C526.7,476.5,526.5,476.7,526.2,476.7z"/>
			</g>
		</g>
		<g>
			<g>
				<path class="st13" d="M529,475.1c-0.1,0-0.3,0-0.4-0.1l-24.4-14.2c-0.4-0.2-0.5-0.7-0.3-1c0.2-0.4,0.7-0.5,1-0.3l24.4,14.2
					c0.4,0.2,0.5,0.7,0.3,1C529.5,474.9,529.3,475.1,529,475.1z"/>
			</g>
		</g>
		<g>
			<g>
				<path class="st13" d="M531.8,473.5c-0.1,0-0.3,0-0.4-0.1l-24.4-14.2c-0.4-0.2-0.5-0.7-0.3-1c0.2-0.4,0.7-0.5,1-0.3l24.4,14.2
					c0.4,0.2,0.5,0.7,0.3,1C532.3,473.3,532.1,473.5,531.8,473.5z"/>
			</g>
		</g>
		<g>
			<g>
				<path class="st13" d="M534.6,471.9c-0.1,0-0.3,0-0.4-0.1l-24.4-14.2c-0.4-0.2-0.5-0.7-0.3-1c0.2-0.4,0.7-0.5,1-0.3l24.4,14.2
					c0.4,0.2,0.5,0.7,0.3,1C535.1,471.7,534.9,471.9,534.6,471.9z"/>
			</g>
		</g>
	</g>
	<path class="st4" d="M506.6,437.6c-3.1-1.5-7.5-0.8-9.8,1.6c-2.3,2.4-1.7,5.5,1.4,7c3.1,1.5,7.5,0.8,9.8-1.6
		C510.4,442.2,509.7,439.1,506.6,437.6z"/>
</g>
<g>
	<polygon class="st19" points="498.2,329.4 498.2,379 494.8,380.8 448.7,346.1 441.5,300.5 444.8,298.7 	"/>
	<polygon class="st18" points="498.2,329.4 498.2,379 494.8,380.8 448.7,346.1 494.8,331.2 	"/>
	<polygon class="st10" points="494.8,331.2 494.8,380.8 441.5,350.1 441.5,300.5 	"/>
	<g>
		<polygon class="st4" points="448.1,316.8 448.1,320.9 467.4,342.6 486.7,343 486.7,338.9 		"/>
		<polygon class="st4" points="467.4,345 448.1,323.3 448.1,344.5 486.7,366.6 486.7,345.4 		"/>
	</g>
</g>
<g>
	<polygon class="st19" points="261.4,168.8 261.4,203.7 257.7,205.7 225.2,181.3 220.1,149.2 223.8,147.1 	"/>
	<polygon class="st18" points="261.4,168.8 261.4,203.7 257.7,205.7 225.2,181.3 257.7,170.8 	"/>
	<polygon class="st10" points="257.7,170.8 257.7,205.7 220.1,184.1 220.1,149.2 	"/>
	<polyline class="st93" points="229.5,173.7 234.6,183.8 249.3,173.1 	"/>
</g>
<g>
	<g>
		<path class="st94" d="M155.9,268.7c0,0,6.9,1.2,8.4,0.1c1.5-1.2,8.1-7.5,9-8.4c0.9-0.9,13.9-4.1,15-4.1c1.1,0,5.7,0.5,5.7,1.2
			c-0.1,0.7-8.2,8.3-9.2,9.1c-0.9,0.8-3.9,3.2-4.3,4.7c-0.5,1.5-4.7,6.6-7.8,6.7c-1.5,0.1-3.8-0.2-3.8-0.2l-15.2,2.2"/>
		<g>
			<path class="st95" d="M200.5,245.1c0,0-3.2,3.3-4.6,3.7c-0.7,0.3-1.6,0.3-2.4,0.4c-1.4,0.2-7.8,1.3-10.6,3.1
				c-1.8,1.1-5.7,6-6.2,7.2c-0.1,0.1-0.1,0.3-0.1,0.4c0,0.2,0.1,0.3,0.3,0.4c1.5,1.4,3.5-0.1,4.6-1.2c0.6-0.6,2.7-2.3,3-1.9
				c0.4,2.7-1.9,8-3.4,9.8c-2.1,2.4-8.1,5-7,6.2c0.4,0.5,1.6,0.8,3.8,0.3c2.7,0,6.3-0.1,8.6-1.5c2.8-1.8,4.6-4.3,6.6-6.5
				c1.4-1.6,2.5-3.7,4.6-5.7c1.3-1.2,7.3-4.8,7.3-4.8L200.5,245.1z"/>
		</g>
		<g>
			<path class="st4" d="M213.9,117.9c-13.1,1.2-16.8,7.7-19.1,12.5c-4.5,9.5-2.3,23-2.2,28.4c0.6,19.5,2.5,38.9,4.4,58.3
				c1.2,12.4,2.5,24.8,3.7,37.2c0.1,0.8,0.2,1.6,0.5,2.3c1.1,2.2,4.5,2.2,6.4,0.7s2.8-4,3.5-6.3c3.1-10.1,5.6-20.6,4.9-31.1
				c-0.7-10.9-4.7-21.4-6.6-32.2c-2.5-14.2-1.2-29.1-5.4-42.9"/>
		</g>
		<g>
			<path class="st96" d="M210.2,154.3c0.7,3.3-12.4-3.3-11.8,0c0.5,2.9,3,40.7,3.5,45.3c0.9,7.7-1.9,17.8-1.2,25.5
				c0.4,4.3,0.9,8.7,2.3,12.8c0.5,1.6,1.3,3.3,2.9,3.8c0.8,0.3,1.6,0.2,2.4,0c3.3-0.9,5.2-4.2,6.7-7.3"/>
		</g>
		<g>
			<linearGradient id="SVGID_53_" gradientUnits="userSpaceOnUse" x1="275.5657" y1="406.0904" x2="203.3295" y2="447.796">
				<stop  offset="0" style="stop-color:#B4BBE1;stop-opacity:0.1"/>
				<stop  offset="1" style="stop-color:#B4BBE1;stop-opacity:0.3"/>
			</linearGradient>
			<path class="st97" d="M290.3,431.8c-8.8-18.2-29.3-29.1-47-36.8c-8.5-3.7-17.9-5.8-27.1-7c-9.1-1.2-19-1.2-26.7,3.9
				c-7.6,5.2-10.9,17.3-4.3,23.7c3,2.9,7.3,4,10.9,6.1c7.2,4,11.8,11.4,16.8,18.1c6.9,9.3,15.1,17.9,25.1,23.7
				c10,5.9,22,8.8,33.4,6.7c7.3-1.4,14.4-5,18.5-11.2C295.1,451,294.4,440.3,290.3,431.8z"/>
		</g>
		<path class="st98" d="M276,419.2c0,0-0.9,3.7-1.5,6.8c-0.5,3.1-0.7,7.1-1.1,10.4c-0.4,3.3-3.4,11.2-4.9,13.2
			c-1.4,2-3.8,4.2-6.9,4.9c-4.4,1.1-9.4,0.3-10.6-0.2c-2-0.7-2.7-2.7-2.7-2.7"/>
		<path class="st98" d="M194.5,407.1c0,2.1,3.1,3.5,6.2,3.7c3,0.2,6.5-0.4,10.2-1.4c3.7-1,5.3-1.9,7.9-3c2.9-1.2,5.8-0.5,5.8-0.5
			s0,0.3,0,0.7c0,0,7.3,1,14.2-2.4c0,0,0,0,0,0c0,0,0.1-1.6,0-3c-0.1-1.2-0.3-3-0.3-3l-44,7.3V407.1z"/>
		<path class="st99" d="M247.1,448.1c0,0.4,0.1,0.8,0.2,1.1c0.4,2.1,1.6,3.7,3.8,4.5c4.1,1.4,11.8,0.7,15.6-3.4
			c3.8-4.1,6.4-14.6,6.4-20.9c0-6.3,3.3-12.1,3.3-12.1h-17.1c-0.1,0.2-0.3,0.3-0.4,0.6c-3,4.1-10.6,19.9-11.4,24.9
			C247.1,444.7,247,446.5,247.1,448.1z"/>
		<path class="st100" d="M247.1,448.1c0.1-0.1,0.2-0.3,0.2-0.4c0.8-4.1,4.7-12,6.7-16.1c2.1-4.2,6-11.7,6-11.7s-0.5-0.9-1.2-2.1
			c-3,4.1-10.6,19.9-11.4,24.9C247.1,444.7,247,446.5,247.1,448.1z"/>
		<path class="st101" d="M247.3,449.2c0.4,2.1,1.6,3.7,3.8,4.5c4.1,1.4,11.8,0.7,15.6-3.4c3.8-4.1,6.4-14.6,6.4-20.9
			c0-6.3,3.3-12.1,3.3-12.1h-7l-0.6,3.6c0,0-0.2,14.6-3.7,21.9c-3.5,7.2-9.8,8.7-12.6,8.6C249.8,451,248.1,450.7,247.3,449.2
			C247.3,449.2,247.3,449.2,247.3,449.2z"/>
		<path class="st99" d="M194.5,406.4c0.1,1,0.7,1.8,1.5,2.2c2.9,1.3,8.9,0.9,12.6,0c3.7-0.9,10.5-4.1,14.1-4.5
			c3.6-0.4,10.6-1,12.4-1.5c1.8-0.5,3.6-1.5,4-4.9c0.4-3.4-1.3-6.2-1.3-6.2l-2.8,0.2l-16.7,1.1l-0.4,0c0,0-5.8,2.1-8.5,3
			c-2.7,0.9-8.4,1.8-12.1,5.3c-0.6,0.6-1.1,1.1-1.5,1.7l0,0C194.7,404.2,194.4,405.4,194.5,406.4z"/>
		<path class="st100" d="M195.7,402.8c2.7-2.3,8.4-4.1,13.1-5.3c4.7-1.2,9.3-2.7,9.3-2.7s0.1-0.9,0.2-2.1l-0.4,0c0,0-5.8,2.1-8.5,3
			c-2.7,0.9-8.4,1.8-12.1,5.3C196.6,401.7,196.1,402.3,195.7,402.8z"/>
		<path class="st101" d="M194.5,406.4c0.1,1,0.7,1.8,1.5,2.2c2.9,1.3,8.9,0.9,12.6,0c3.7-0.9,10.5-4.1,14.1-4.5
			c3.6-0.4,10.6-1,12.4-1.5c1.8-0.5,3.6-1.5,4-4.9c0.4-3.4-1.3-6.2-1.3-6.2l-2.8,0.2l0.1,0.9c0,0,2.6,3.6,0.9,6.4
			c-1.7,2.7-8.2,2.3-12.2,2.8c-3.9,0.5-9.6,3.7-15.1,4.6C203,407.4,196.5,408.2,194.5,406.4L194.5,406.4z"/>
		<path class="st91" d="M207.3,301.8c0.7,2.8,1.2,5.5,1.7,8.1c0,0.1,0,0.1,0,0.1c0.5,2.6,0.8,5,1.2,7.3c0,0.1,0,0.2,0,0.2
			c0,0.3,0.1,0.7,0.2,1.3c0.1,0.6,0.2,1.2,0.3,1.7c0.7,4.7,2.1,14.5,3.2,27.8c0,0.1,0,0.2,0,0.3c0.5,4.4,0.9,10.4,1.2,16.7
			c0.1,1.5,0.2,2.9,0.2,4.4c0.4,8.3,0.7,16.8,0.9,22.9c0,1.5,0.9,3,2.3,3.7c1.1,0.6,2.2,0.9,3.6,1c3.7,0.1,6.6-0.4,8.9-1.2
			c2.2-0.7,3.9-1.7,5-2.5c1.3-0.9,2-2.4,1.9-4c-0.1-5.2-0.5-19.2,0.1-33.1c0.7-17.6,2.1-50.8,2.1-50.8l-6.2-55.6l-11.5-2.6
			c0.6-3.2,1.2-6.9,1.7-9.6c0.3-2,0.6-3.4,0.6-3.4h-22.6c0,0,0,0.3,0,0.9C201.8,241.6,200.6,274.9,207.3,301.8z"/>
		<path class="st102" d="M207.3,301.8c0.7,2.8,1.2,5.5,1.7,8.1c-0.2-1.9-2.3-20.3-3.2-29.7c-1-9.9,0.6-40.9,0.6-40.9s-2-1.7-4.3-3.7
			C201.8,241.6,200.6,274.9,207.3,301.8z"/>
		<path class="st90" d="M217.2,243.4c0,0,0.5,32,8.3,65c4.7,19.9,5.7,59.6,5.7,88c2.2-0.7,3.9-1.7,5-2.5c1.3-0.9,2-2.4,1.9-4
			c-0.1-5.2-0.5-19.2,0.1-33.1c0.7-17.6,2.1-50.8,2.1-50.8l-6.2-55.6l-11.5-2.6c0.6-3.2,1.2-6.9,1.7-9.6L217.2,243.4z"/>
		<path class="st91" d="M227,246.1c0,0-1.9,40.3,13.3,84.6c0,0,0,0,0,0c2.8,7.1,5,12.8,5.6,15.2c1.3,5,7,55.1,8.4,67.2
			c0.2,2,0.9,3.9,1.9,5.5c2.1,3.3,5.1,6.1,10.5,5.6c1.6-0.2,3.1-0.5,4.6-0.9c2.3-0.7,4.4-1.6,5.8-2.4c1.5-0.8,2.4-2.3,2.4-4
			c-0.4-13-2.1-69.8-3.1-76.9c-1.2-8-6.1-25.5-8.4-57.6c-0.3-4.6-0.1-9.3,1.4-13.7c4.1-11.9,0.4-22.3,0.4-22.3s-1.4,0.5-3.4,1.3
			c0.1-3,0.2-4.4,0.2-4.4l-1.1,0l-39.6,0.8L227,246.1z"/>
		<path class="st90" d="M252.6,270.1c-1.2,11.3,11.7,61.3,13,74.2c1.3,12.9,5.5,79.1,5.5,79.1s0,0,0,0c2.3-0.7,4.4-1.6,5.8-2.4
			c1.5-0.8,2.4-2.3,2.4-4c-0.4-13-2.1-69.8-3.1-76.9c-1.2-8-6.1-25.5-8.4-57.6c-0.3-4.6-0.1-9.3,1.4-13.7
			c4.1-11.9,0.4-22.3,0.4-22.3s-1.4,0.5-3.4,1.3c0.1-3,0.2-4.4,0.2-4.4l-1.1,0c-7.2,4-13.3,7.8-13.3,7.8S253.8,258.9,252.6,270.1z"
			/>
		<path class="st103" d="M269.9,245.5c0,0,0.4,1.3,0.6,3.1c0.1,0.6-0.2,1.2-0.6,1.5c-1.1,0.7-3.6,2.2-8.5,4.1
			c-5.5,2.1-12.9,2.4-18.2,1.9c-2.2-0.2-24.1-5-37.2-13.3c-3.3-2.1-5-6-4.4-9.9l0-0.1C202.1,230.2,269.9,245.5,269.9,245.5z"/>
		<path class="st4" d="M204.8,187.5c0.1,2.4,0.1,4.8,0.2,7.3c0.2,5.4-0.2,10.9-1.2,16.2c-0.8,4.5-1.8,10.1-2.4,14.1
			c-1.2,8,0.9,13.8,4.9,16.2c0,0,0.1,0,0.1,0c12.8,7.9,27.6,11.5,35.6,13c1.3,0.2,2.5,0.4,3.8,0.5c2.8,0.2,5.5,0.1,8.2-0.3
			c1.1-0.2,2.2-0.4,3.3-0.7l1-0.3c1.2-0.4,2.4-0.9,3.5-1.6c5.2-3.3,5.6-5.9,6-8.8c0.6-5-2-11-2.9-15.8c-3.2-15.8,4.9-29.9,9.4-44.5
			c2.1-6.8,4.1-13.5,5.8-20.4c1-4.2,2.5-9,2.1-13.4c0-0.1,0-0.2,0-0.3c-0.2-1.4-0.5-2.4-0.7-3.1c-0.9-2.5-3.5-5.4-6.5-8.1
			c-3.1-2.7-6.5-5.2-8.8-6.7c-0.1-0.1-0.2-0.1-0.3-0.2c-2-1.3-3.9-2.5-6.7-3.9c-2.3-1.1-5.2-2.4-9.3-4c-1.5-0.6-3-1.1-4.5-1.6
			c-2.8-0.9-5.7-1.6-8.6-2.2c-4.5-0.9-9-1.7-13.4-2.5c-0.7,0-1.5,0-2.2,0.1c-5.4,0.4-15.7,3.2-15.7,3.2s-4.7,8.8-7.3,14
			C194,142,202.4,172.5,204.8,187.5z"/>
		<path class="st96" d="M276.4,146c-6.7-11.4-23.3-17-26.2-17.9c-8.9,13.2-19.3,13.5-19.3,13.5l-0.5-5.7l-2.8,2.1l-1.9,30.5
			l-3.3-7.6l2.5-25.9l9.7-12.4l10.7-1.3c1.5,0.5,3,1,4.5,1.6c6.5,2.6,10,4.3,12.8,6c0.1,0.1,0.2,0.1,0.3,0.2c0.3,0.2,0.7,0.4,1,0.6
			c0.4,0.2,0.8,0.5,1.2,0.7c0.2,0.2,0.5,0.3,0.7,0.5c0.1,0.1,0.2,0.1,0.3,0.2c2.3,1.5,5.7,3.9,8.8,6.7c0,0,0,0,0,0
			c3,2.7,5.6,5.6,6.5,8c0.1,0.2,0.1,0.3,0.2,0.5c0.2,0.6,0.4,1.5,0.6,2.6c0,0,0,0,0,0C283.7,157.9,278.3,157.7,276.4,146z"/>
		<g>
			<path class="st96" d="M225.7,131.2c-1.5,1.3-2.8,2.8-4,4.3c-1.2,1.6-2,3.3-3.1,4.9c-0.4-1.5-0.2-3.4-0.2-5c0-1.8,0.1-3.5,0.4-5.3
				c0.5-3.3,1.8-6.5,3.6-9.4c0.5,0.5,0.6,1.3,0.8,1.9c0.4,1.1,1.4,1.8,1.8,2.9c0.4,1.1,0,2.4,0.3,3.6"/>
		</g>
		<path class="st94" d="M247.6,106.6v12c0,0-12.3,8.9-18.9,7.6c-2.8-0.6-4.3-4.2-3.7-9.2l6-1.2L247.6,106.6z"/>
		<path class="st4" d="M227.2,125.6l-7,8.2c0,0-0.3-9.9,4.4-14.9c4.6-4.9,4.8-0.7,4.8-0.7S225.1,123.2,227.2,125.6z"/>
		<path class="st95" d="M213.6,90.6c0,0-1,10.1,1.1,19.3c2.1,9.2,2.7,11.3,6.4,12.9c3.7,1.6,7.1,1.8,13.3-2.2
			c6.2-4,9.7-10.6,9.7-10.6s0.9,0.6,3.1-1.9c3.5-3.9,4.2-5.9,4.2-11.3s-1.3-12.1-5.5-19.1c-4.2-7-17-4.8-22.8-1.8
			C217.3,79,214.7,84.6,213.6,90.6z"/>
		<path class="st104" d="M208.5,91c6.4,11.3,22.3,3.9,22.3,3.9c1.2,4.9,4.6,5.4,6.3,6.3c1.6,0.9,2,5.7,2,5.7h1.5
			c0,0,0.1-4.8,0.8-7.2c0.8-2.4,5.2-4.2,7.4-0.7c2,3.1-0.3,6.6-1.6,9.2c-0.4,4.1,0.4,5.8,0.4,5.8s2.4-2.4,4-7.3
			c1.6-4.9,2.8-15.2,0-26.2c-0.3-1.2-0.7-2.2-1.3-3.2c-4.9-8.2-18.8-9.9-24.3-8c-4.7,1.6-16.4,6.9-18.6,14.5
			C206.8,86,207,88.4,208.5,91z"/>
		<path class="st91" d="M208,316.2c0.1,0.6,0.2,1.2,0.3,1.7C208.2,317.2,208.1,316.6,208,316.2z"/>
		<path class="st91" d="M207.8,314.7c0,0.1,0,0.1,0,0.2C207.8,314.7,207.8,314.7,207.8,314.7z"/>
		<path class="st105" d="M257.3,174.3c0,0,2.5-10.3,2.1-17.1c-0.4-6.8-4.1-0.7-4.5,4.8c-0.4,5.5-3.6,17.5-3.6,17.5"/>
		<path class="st4" d="M247.6,117.4c0,0,0.8,1,1.3,2.5c0.5,1.2,0.9,2.8,0.9,2.8s-5,10.4-18.9,14.8l-1.6-11.2
			C229.3,126.3,241.5,124.7,247.6,117.4z"/>
		<g>
			<path class="st96" d="M255.1,212.9c-0.3-1.3-0.5-2.1-0.5-2.1l8.5-9.2c0,0,1.4,14.5,1.9,19.3c0.5,4.8,6.4,20.1,6.1,25.4
				c-0.3,5.4-17.1,8.3-17.1,8.3s4.6-11.2,4.3-19.8c-0.1-4.7-0.9-9.4-1.7-14c-0.5-2.7-0.6-10.9-4.1-11c-0.9,0-1.8,0.3-2.7,0.6
				c-4.6,1.6-10.9,8.7-15.4,10.5c-4.1,1.6-10.3,7.3-13.8,3.2c3.6-4.8,14.5-17.2,15.4-18.7c1.1-1.9,16.6-37.4,19.4-42
				c1.7,10.5,3.2,23.5,4.9,34"/>
		</g>
		<path class="st91" d="M229.3,126.3l1.1,8l-4,3.2l-4.1-1.3l-0.2-4.7l5.1-6C227.2,125.6,227.7,126.1,229.3,126.3z"/>
		<path class="st91" d="M226.4,139.3c0-0.6,0-1.2,0.1-1.8l-4.1-1.3c0.1,0-2.8,15.7-3,16.9c-2.4,14.7-4.4,29.4-6.4,44.1
			c-0.9,6.8-1.6,12.1-1.9,14.1c-0.1,0.7,0,1.3,0.2,1.9l4.2,10.9c0.2,0.6,10.3-9.8,10.2-10.8C225.5,211.3,225.8,159.4,226.4,139.3z
			 M217.3,167C217.3,167,217.4,167,217.3,167C217.3,167.1,217.3,167.2,217.3,167z"/>
		<path class="st106" d="M208.5,91c6.4,11.3,22.3,3.9,22.3,3.9c1.2,4.9,4.6,5.4,6.3,6.3c1.6,0.9,2,5.7,2,5.7h1.5
			c0,0,0.1-4.8,0.8-7.2c0.8-2.4,5.2-4.2,7.4-0.7c2,3.1-0.3,6.6-1.6,9.2c-0.4,4.1,0.4,5.8,0.4,5.8s2.4-2.4,4-7.3
			c1.6-4.9,2.8-15.2,0-26.2c-0.3-1.2-0.7-2.2-1.3-3.2c-2.7,2.3-10.4,8.5-18.4,11.9c-10,4.2-17.8,3.3-20.3,1.2
			c-2.5-2.1-3.8-3.9-4.1-6.6l0,0C206.8,86,207,88.4,208.5,91z"/>
		<g>
			<path class="st4" d="M255,162c-5.2,15.6-9.3,31.7-17.9,47.1c-15.8,12.8-27.5,26.7-40.1,38.6c2.4,4.5,2.3,7.2,4.7,11.7
				c3.6-0.9,35-23,48-31.4c13.1-8.5,16.9-16,22.9-30.4c5.5-13.2,10.2-34.5,9.4-48.8"/>
		</g>
		<g>
			<path class="st96" d="M282.1,148.7l-4.7,0.6c0,14.1-6.8,36.1-11.9,48.2c-6,14.4-9.9,21.9-22.9,30.4
				c-10.3,6.6-31.7,21.6-42.2,28.2c0.4,1,0.8,2,1.5,3.2c3.6-0.9,35-23,48-31.4c13.1-8.5,16.9-16,22.9-30.4
				C278.2,184.3,282.9,163,282.1,148.7z"/>
		</g>
		<path class="st94" d="M175.4,262.1c0.6,0.1,4.3-1.9,5.1-2.2c0.9-0.3,6.1-1.8,6.3-1.6c0.6,0.7,0.5,2.8-1.5,3.7
			c-2,1-3.9,2.2-3.9,2.2s-3.7,6.3-9.9,8.5"/>
		<g>
			<path class="st107" d="M185.3,262.1c-1.3,0.7-2.6,1.5-3.9,2.3l0,0c-1.2,1.9-2.6,3.6-4.3,5.1c-0.8,0.7-1.7,1.4-2.7,2
				c-0.9,0.6-2,1-3,1.4c2.1-0.8,3.9-2,5.5-3.5c1.6-1.5,3.1-3.2,4.3-5l0,0l0,0C182.6,263.4,184,262.7,185.3,262.1z"/>
		</g>
		<g>
			<path class="st107" d="M175.8,261.5c0.3,0.2,0.7,0,1.1-0.1c0.3-0.1,0.7-0.2,1-0.4c0.6-0.3,1.4-0.5,2-0.8c1.4-0.5,2.8-1,4.2-1.4
				c-1.3,0.6-2.7,1.1-4.1,1.6c-0.7,0.3-1.4,0.5-2.1,0.8c-0.3,0.1-0.7,0.3-1.1,0.3C176.5,261.6,176.1,261.7,175.8,261.5z"/>
		</g>
	</g>
	<g>
		<path class="st108" d="M157.4,269.2l3.4-0.6c0,0,2.3,1.5,2.7,2.9c1,3.4-0.2,7.5-0.2,7.5l-10.9,3.3"/>
		<path class="st109" d="M63.8,226.2c0,0,27.2,32.7,33.1,33.9c5.9,1.1,61.8,8.6,61.8,8.6s3.1,1.1,3.5,4.2c0.4,3.1-1.6,8.1-1.6,8.1
			s-58.7,6.9-63.9,5.5c-5.3-1.4-54.5-43.7-54.5-43.7"/>
		<path class="st11" d="M98.3,278.8c-4.3-1.1-38.8-30.3-50.6-40.3l-5.6,4.3c0,0,49.2,42.3,54.5,43.7c5.3,1.4,63.9-5.5,63.9-5.5
			s0.6-1.4,1-3.1C155.7,278.1,103.2,280.1,98.3,278.8z"/>
		<g>
			
				<linearGradient id="SVGID_54_" gradientUnits="userSpaceOnUse" x1="149.4671" y1="466.6376" x2="47.0338" y2="525.7775" gradientTransform="matrix(0.9949 -0.1005 0.1005 0.9949 -41.1791 36.9241)">
				<stop  offset="0" style="stop-color:#B4BBE1;stop-opacity:0.1"/>
				<stop  offset="1" style="stop-color:#B4BBE1;stop-opacity:0.3"/>
			</linearGradient>
			<path class="st110" d="M160.3,528.6c1.3-6.2,1.9-12.7,2-19c0.3-10.9-2.4-22.6-14.6-24.5c-19.1-3-39.3-0.5-58.3,2.4
				c-15.7,2.5-36.1,2.4-48.9,13.1C20.9,517,46.3,537.8,60,547.2c26.2,18,64.1,40.8,89,7.8C154.8,547.3,158.3,538.2,160.3,528.6z"/>
		</g>
		<path class="st98" d="M54.4,533v0.2c0,0,0,0.1,0,0.2c0,0.1,0.1,0.1,0.1,0.3c0.3,1.1,1.6,4,6.4,4.8c0.3,0.1,0.6,0.1,0.9,0.1
			c0.1,0,0.3,0.1,0.4,0.1c1.1,0.1,2.3,0.1,3.6,0.1c0.4,0,0.8-0.1,1.2-0.1c5.3-1.1,10.2-5.1,11.4-6.2c0.2-0.2,0.3-0.3,0.3-0.3v-1
			c0,0,3.5-2.3,4.8-3.1c3.9-2.3,9.5-4.2,14.8-6.9c1.6-0.8,2.9-1.7,3.7-2.5c0.2-0.2,0.3-0.4,0.5-0.5c0.1-0.1,0.2-0.2,0.3-0.3
			c0.1-0.1,0.2-0.3,0.3-0.5c0.2-0.3,0.4-0.6,0.6-0.8c0.1-0.2,0.2-0.3,0.2-0.4c0.1-0.2,0.1-0.3,0.2-0.4c0.1-0.1,0.1-0.3,0.1-0.4
			c0,0,0,0,0,0c0.2-0.7,0.3-1.3,0.3-2v-3.5l-32.4,13.3l-17.7,6.6L54.4,533z"/>
		<path class="st99" d="M73.7,508.8c0,0,5.4-0.2,14.3-1.8c8.8-1.5,14.9-1.9,16.1,0.8c1.1,2.7,1.4,5.5-6.5,10.9
			c-7.9,5.4-14,6-20.3,11.1c-4.7,3.8-8.9,4.7-13.6,5c-4.7,0.3-7.9-1.5-8.9-3.4c-2.4-4.5,0.1-12.9,0.1-12.9"/>
		<path class="st98" d="M86.3,538.2l0,4.4c0,1.6,0.8,3.1,2.2,3.8c0.6,0.3,1.2,0.5,1.9,0.5c5.5,0.6,13.9-0.7,13.9-0.7v-1.6
			c0,0,3-0.3,11.9-1.4c9.1-1.1,15.3-3.8,18.3-5.5c1.3-0.7,2.1-2,2.1-3.5l0-3.2l-34.8,6.1L86.3,538.2z"/>
		<path class="st99" d="M110.7,522.7c0,0,3.9,3.6,8.4,3.6c4.6,0,13.4-0.1,15.7,1.5c1.1,0.8,1.7,1.8,1.8,2.8c0.1,1.1-0.4,2.3-1.2,3.5
			c-1.7,2.5-13.2,6.3-21.9,7c-8.7,0.7-9.1,0.6-13.2,1.3c-4.1,0.7-8.4,1-11-0.3c-4.5-2.2-4.8-9-2-13.4
			C90.1,524.3,110.7,522.7,110.7,522.7z"/>
		<path class="st95" d="M63.4,200.4l-0.7,1.6l1.1,5.4l17.3,8.7l1-0.1l2.8-0.3l4.4-0.6v-6c0-3.1,1.7-6.1,4.5-7.3
			c0.1-0.1,0.2-0.1,0.2-0.1c1-0.4,2-1,2.9-2l0.3-0.3c3.3-3.5,6.3-11.5,5.5-28.9c-0.2-3-0.8-8.3-2.2-11c-2.5-4.8-7.9-8-18.9-5
			c-18.4,5.1-26.4,13.4-27.4,20.7C53.2,182.5,63.4,200.4,63.4,200.4z"/>
		<path class="st94" d="M89.3,215.2v-6c0-3.1,1.7-6.1,4.5-7.3c-0.9,0.4-3.7,1.7-7.4,3.7c-1.5,0.8-1.4,5.6-1.4,10.1L89.3,215.2z"/>
		<g>
			<g>
				<path class="st111" d="M117.2,246.2l36.7,18.9l16.7-53.6c0.6-1.9-0.3-3.9-1.9-4.8L138,190.9c-1.6-0.8-3.6,0-4.1,1.8L117.2,246.2
					z"/>
				<path class="st10" d="M119.6,245l32.7,16.9l15.6-49.8c0.6-2.3,0.5-3.3-1.8-4.4l-28.6-14.8c-0.7-0.4-1.6,0-1.8,0.8L119.6,245z"/>
				<path class="st112" d="M148.8,217l10.1,5.2c0.3,0.1,0.6,0,0.7-0.3l2.8-9.3c0.1-0.2,0-0.5-0.3-0.6l-10.1-5.2
					c-0.3-0.1-0.6,0-0.7,0.3l-2.8,9.3C148.5,216.6,148.6,216.9,148.8,217z M141.4,240.5l7.9,4.1c0.2,0.1,0.5,0,0.5-0.2l6.2-19.7
					c0.1-0.2,0-0.4-0.2-0.5l-7.9-4.1c-0.2-0.1-0.5,0-0.5,0.2l-6.2,19.7C141.1,240.2,141.2,240.4,141.4,240.5z M136.8,222.8l6,3.1
					c0.2,0.1,0.4,0,0.4-0.2l0.1-0.4c0-0.1,0-0.3-0.2-0.4l-6-3.1c-0.2-0.1-0.4,0-0.4,0.2l-0.1,0.4
					C136.6,222.6,136.7,222.7,136.8,222.8z M141.8,227.9c0.3,0.1,0.6,0,0.7-0.3l0.2-0.7c0.1-0.3,0-0.5-0.3-0.7l-10.7-5.5
					c-0.3-0.1-0.6,0-0.7,0.3l-0.2,0.7c-0.1,0.3,0,0.5,0.3,0.7 M130.5,224.4l10.7,5.5c0.3,0.1,0.6,0,0.7-0.3l0.2-0.7
					c0.1-0.3,0-0.5-0.3-0.7l-10.7-5.5c-0.3-0.1-0.6,0-0.7,0.3l-0.2,0.7C130.2,224,130.3,224.3,130.5,224.4z M129.9,226.4l10.7,5.5
					c0.3,0.1,0.6,0,0.7-0.3l0.2-0.7c0.1-0.3,0-0.5-0.3-0.7l-10.7-5.5c-0.3-0.1-0.6,0-0.7,0.3l-0.2,0.7
					C129.6,226,129.7,226.3,129.9,226.4z M129.3,228.4l10.7,5.5c0.3,0.1,0.6,0,0.7-0.3l0.2-0.7c0.1-0.3,0-0.5-0.3-0.7l-10.7-5.5
					c-0.3-0.1-0.6,0-0.7,0.3l-0.2,0.7C129,228,129.1,228.3,129.3,228.4z M128.7,230.4l10.7,5.5c0.3,0.1,0.6,0,0.7-0.3l0.2-0.7
					c0.1-0.3,0-0.5-0.3-0.7l-10.7-5.5c-0.3-0.1-0.6,0-0.7,0.3l-0.2,0.7C128.4,230,128.5,230.2,128.7,230.4z M134.7,210.9l11.1,5.7
					c0.3,0.2,0.7,0,0.8-0.3l3.1-10.2c0.1-0.3,0-0.6-0.3-0.7l-11.1-5.7c-0.3-0.2-0.7,0-0.8,0.3l-3.1,10.2
					C134.3,210.5,134.4,210.8,134.7,210.9z"/>
			</g>
			<path class="st95" d="M146.1,254.2l5.9,4.9l1.1,0.9c0,0,1.4-5.7,3.8-7.8c0.8-0.7,3.2-1.7,4.6-2.1c0.8-0.2,1.5-0.7,2-1.3
				c1.2-1.6,2.9-5.1,2-11.1c-0.2-1.2-0.4-1.9-0.8-2.5c0,0,0,0,0,0c-0.7-1.3-1.6-1.2-1.6-1.2s-4,2.8-5.2,3.7c-1,0.7-2.2,2.1-3.1,1.1
				c-0.5-0.5,2.4-4.2,3.2-5.9c0.8-1.7-0.8-3.5-1.4-2.9c-0.7,0.7-4.8,5.8-6.4,10.2C148.4,244.5,146.1,254.2,146.1,254.2z"/>
			<path class="st94" d="M150.6,254.9l1.4,4.2l1.1,0.9c0,0,1.4-5.7,3.8-7.8c0.8-0.7,3.2-1.7,4.6-2.1c0.8-0.2,1.5-0.7,2-1.3
				c1.2-1.6,2.9-5.1,2-11.1c-0.2-1.2-0.4-1.9-0.8-2.5c0,0,0,0,0,0s0,1-1.7,2.5c-1.6,1.4-4.1,2.8-5.2,3.5c-1.1,0.7-2.9,3.4-4,6
				C152.5,249.9,150.6,254.9,150.6,254.9z"/>
			<path class="st108" d="M154.2,259.9l1-3.3c0.2-0.6,0.2-1.3-0.1-1.9c-0.6-1.2-1.6-3.2-2.7-4.2c-1.6-1.5-3.7-1.7-5-0.8
				c-0.5,0.4-0.9,1.6-1.3,2.5c-0.3,0.7-0.3,2.7-0.3,3c0.1,0.2,2.2,3.2,2.4,3.5C148.6,258.9,154.2,259.9,154.2,259.9z"/>
		</g>
		<path class="st91" d="M45.7,365c4.1,22.4,7,50.2,7,50.2s-6.8,55.7,0.8,104.1c0.3,2.3,1.1,7.1,4.1,9c1.7,1,6.1,1.8,9.5-0.1
			c0.1-0.1,0.3-0.1,0.4-0.2c11.5-6.3,10.3-14.4,11.9-19.8c0-21.6-2.3-74.6,2.3-86.3l4.1-47l-1.5-33.6H43.3v0.1l-0.2-0.1
			C43.1,341.4,39.6,350.4,45.7,365z"/>
		<path class="st90" d="M58.3,365.9c3.9,12.7,8.9,46,9.9,54.1c0,0-3.8,64-0.6,108.1c11.5-6.3,10.3-14.4,11.9-19.8
			c0-21.6-2.3-74.6,2.3-86.3l4.1-47l-1.5-33.6H56.1C56.1,341.4,54.4,353.2,58.3,365.9z"/>
		<path class="st91" d="M60.9,352.5c1.3,5.8,3.8,13.8,8.9,21.5c0.8,1.2,1.5,2.4,2.2,3.6c0.1,0.6,2.2,8.1,4.6,18.2
			c2.5,10.1,5.5,22.8,7.7,33.6c-1.2,13.5-4.5,60.9,1.8,101.9c0.5,2.9,2.5,5.3,5.4,6.1c1.3,0.4,2.9,0.6,4.5,0.5
			c1.2-0.1,2.5-0.3,3.8-0.9c6.7-2.8,11.6-13.6,11.6-13.6s0.2-68.1,3.7-86c0.7-3.4,1-6.9,1.2-10.3c0.7-11,1.8-30.9,2.2-39.3
			c0.7-16.2,0.8-29.9,0.3-36l-33.7,0.4L60.9,352.5z"/>
		<path class="st90" d="M85.1,352.2c0.2,2,0.3,3.3,0.3,3.3s0.3,8.5,4.6,21.2c4.3,12.7,8.6,42.9,9,54.2c0.5,10.4-5.1,60-3,106.9
			c1.2-0.1,2.5-0.3,3.8-0.9c6.7-2.8,11.6-13.6,11.6-13.6s0.2-68.1,3.7-86c0.7-3.4,1-6.9,1.2-10.3c0.7-11,1.8-30.9,2.2-39.3
			c0.7-16.2,0.8-29.9,0.3-36L85.1,352.2z"/>
		<path class="st9" d="M39.1,257.4c5.4,16.5,8.5,43.6,5.2,54.9c-3.3,11.3-5.2,27.4-5.2,27.4c3.1,8.5,31.8,26.9,47.9,28.3
			c2,0.2,3.9,0.1,5.9-0.2c14.1-2.1,27.4-14.6,27.4-14.6s-3.1-46.5-5-76.2c-1.3-19.8-4.2-32.1-6-38.1c-0.9-3-1.5-4.5-1.5-4.5
			c-1.7-2.2-6.8-6-13.2-10.3c0,0-0.1,0-0.1-0.1c-4.3-2.9-9.3-5.9-14.2-8.9h0c-6.6-3.9-13.2-7.6-18.6-10.2c-0.6-0.3-1.2-0.6-1.8-0.8
			c-3.8-1.8-6.7-3.1-8.2-3.3c-7.6-1.4-17.7,2.6-20.7,16.3C27.8,230.8,33.7,240.9,39.1,257.4z"/>
		<path class="st113" d="M94.6,312.1c1,12.7-1,44.3-1.7,55.6c14.1-2.1,27.4-14.6,27.4-14.6s-3.1-46.5-5-76.2
			c-1.3-19.8-4.2-32.1-6-38.1c-1.5-1.8-2.5-2.9-2.5-2.9H88.1c0,0-9.7,2-6.2,24C85.5,282.1,93.4,296.6,94.6,312.1z"/>
		<path class="st114" d="M179.7,169.1"/>
		<path class="st115" d="M59.7,211.1c2.8,3.9,13,9.5,17.6,10.5c4.7,1,8.4,0.5,10.6,0.5c3.1,0,5.5,1.7,6.4,2c0.1,0,0.1,0.1,0.1,0.1
			c0,0,0.1,0,0.1,0l-2.8-4.2l-3.2-2.1c0,0-4.7-1.7-5.8-2.2c-0.3-0.2-1.4-0.3-2.6-0.5h0c-2.8-0.3-6.8-0.6-7.4-0.7
			c-0.9-0.1-8.2-5.1-8.5-5.3c-0.2-0.1-1.6-2.5-2.6-4.2c-0.6-0.3-1.2-0.6-1.8-0.8C58.8,205.4,57.4,208,59.7,211.1z"/>
		<path class="st104" d="M49.3,176c1.6,9.5,9.6,24.3,13.6,25.7c2.5,0.8,4.8,1.2,6.7,1.3c3.2,0.2,6-2.1,6.6-5.2
			c0.5-2.7,1.3-6,2.7-8.5c2.8-5.2,6.5-8,8.4-7c1.9,1,1.7,4.3,1.7,4.3l1.2,0c0,0,0.1-1.1,0.3-2.5c0.1-1.4,0.3-3.2,0.4-4.6
			c0-3.5,1.1-7,3.3-9.8c1.3-1.7,2.9-4.4,4.5-8.3c1.1-2.7,1.4-5.2,1.1-7.5v0c-0.8-7.3-3.7-10.3-6.5-12.3c-9.2-6.7-28.3,5.7-35.4,11.7
			c-3.9,3.3-6.6,7-7.9,11.3v0C48.8,167.9,48.6,171.7,49.3,176z"/>
		<path class="st4" d="M61,203.7l1.8-1.6c11.4,12.6,26.5,13.1,26.5,13.1s4.1,4.2,5.3,9l-2.4-1.6c-1.3-0.8-2.7-1.4-4.2-1.6
			c-0.9-0.1-3-0.3-3-0.3c-9.4-0.1-18.9-6.7-23.8-10.8C59.3,208.3,59.2,205.4,61,203.7z"/>
		<path class="st116" d="M153.7,255.9"/>
		<path class="st116" d="M171.5,213.1"/>
		<path class="st117" d="M103.8,517.3c-0.1,0.3-0.4,0.6-0.6,0.9C103.4,517.9,103.6,517.6,103.8,517.3z"/>
		<path class="st117" d="M102.9,518.6c0.1-0.1,0.2-0.3,0.3-0.4c-0.2,0.2-0.4,0.5-0.6,0.8C102.7,518.8,102.7,518.7,102.9,518.6z"/>
		<path class="st9" d="M86.1,251.4c1.8,10.4,21.6,40.7,22.5,41.9c3.6,5.7,7,10.6,9.9,14.2h0c2.6,3.3,4.8,5.4,6.2,5.8
			c0.3,0.1,0.5,0.1,0.8,0.2c6.2,1.5,10.8-2.5,12.5-7c1.6-3.5,6.4-11.9,10.4-22.6c2.6-7.2,4.2-15.9,5.9-23c0.4-1.7,0.2-3.5-0.7-5.1
			c-0.1-0.1-0.1-0.3-0.2-0.4c-1.1-1.8-2.6-3.9-4-4.1c-2.5-0.4-3,0.3-3,0.3s-4.6,7.3-8.2,13c-2.8,4.4-5.9,12.1-7.2,15.3
			c-0.3,1-0.6,1.5-0.6,1.5c-6.6-15.3-15.1-34-18.6-41.8c-4.2-9.5-17-11.5-23.7-3.5c-0.1,0.1-0.2,0.2-0.3,0.3
			c-0.4,0.5-0.7,1.2-0.9,1.9l0,0c0,0,0,0-0.1,0.1C86.5,238.7,84.4,241.7,86.1,251.4z"/>
		<path class="st106" d="M49.3,176c1.6,9.5,9.6,24.3,13.6,25.7c2.5,0.8,4.8,1.2,6.7,1.3c3.2,0.2,6-2.1,6.6-5.2
			c0.5-2.7,1.3-6,2.7-8.5c2.8-5.2,6.5-8,8.4-7c1.9,1,1.7,4.3,1.7,4.3l1.2,0c0,0,0.1-1.1,0.3-2.5c0.1-1.4,0.3-3.2,0.4-4.6
			c0-3.5,1.1-7,3.3-9.8c1.3-1.7,2.9-4.4,4.5-8.3c1.1-2.7,1.4-5.2,1.1-7.5c-0.9,2.3-8.5,20.1-29.8,24.5c-22.2,4.7-20.1-13-20-13.9
			C48.8,167.9,48.6,171.7,49.3,176z"/>
		<path class="st118" d="M131,279.9c-0.3,1-0.6,1.5-0.6,1.5s2.1,4.4,1.8,9.2C132.2,290.6,134.6,285.4,131,279.9z"/>
		<path class="st11" d="M86.8,238.3L86.8,238.3c0.1,0-0.6,8.7,7.6,23.1c8.3,14.5,25.8,49.2,34.4,48.2c4.6-0.5,14.6-21.9,18.4-31.9
			c3-8,5.3-18.4,6.1-22.3c0.1,0.1,0.1,0.3,0.2,0.4c0.9,1.6,1.1,3.4,0.7,5.1c-1.7,7.1-3.3,15.9-5.9,23c-3.9,10.8-8.7,19.1-10.4,22.6
			c-1.7,4.5-6.4,8.4-12.5,6.9v0c-0.3-0.1-0.5-0.1-0.8-0.2c-1.4-0.4-3.5-2.5-6.2-5.8h0c-2.9-3.5-6.4-8.5-9.9-14.2
			c-0.8-1.2-20.7-31.5-22.5-41.9C84.4,241.7,86.5,238.7,86.8,238.3z"/>
	</g>
</g>
</svg>
