<?xml version="1.0" encoding="utf-8"?>
<!-- Generator: Adobe Illustrator 24.1.2, SVG Export Plug-In . SVG Version: 6.00 Build 0)  -->
<svg version="1.0" id="Layer_3" xmlns="http://www.w3.org/2000/svg" xmlns:xlink="http://www.w3.org/1999/xlink" x="0px" y="0px"
	 viewBox="0 0 155.2 41.6" style="enable-background:new 0 0 155.2 41.6;" xml:space="preserve">
<style type="text/css">
	.st0{fill:#169195;}
	.st1{fill:#E2F1EF;}
	.st2{fill:#5CBEB2;}
</style>
<g>
	<g>
		<path class="st0" d="M30.8,23.8L25.9,21l4.9-2.8l4.9,2.8C35.7,21,30.8,23.8,30.8,23.8z"/>
		<path class="st1" d="M30.8,12.5l-4.9,2.8V21l4.9-2.8V12.5z"/>
		<path class="st0" d="M11.2,23.9L6.3,21l4.9-2.8l4.9,2.8L11.2,23.9z"/>
		<path class="st2" d="M11.2,12.5l4.9,2.8V21l-4.9-2.8V12.5z"/>
		<path class="st0" d="M25.9,15.4L21,12.5l4.9-2.8l4.9,2.8C30.8,12.5,25.9,15.4,25.9,15.4z M16.1,15.4l-4.9-2.8l4.9-2.8l4.9,2.8
			C21,12.5,16.1,15.4,16.1,15.4z M21,40.9L16.1,38l4.9-2.8l4.9,2.8C25.9,38,21,40.9,21,40.9z"/>
		<path class="st1" d="M21,1.2L6.3,9.7V21l4.9-2.8v-5.7l4.9-2.8V38l4.9-2.8C21,35.2,21,1.2,21,1.2z"/>
		<path class="st2" d="M21,1.2v34l4.9,2.8V9.7l4.9,2.9v5.5l4.9,2.8V9.6L21,1.2z"/>
	</g>
</g>
<g>
	<path class="st2" d="M67.5,20.6c0,0,0.1,0,0.2,0s0.1,0.1,0.2,0.2c0.1,0.1,0.1,0.2,0.1,0.3c-0.1,2-0.7,3.7-1.7,5.3
		c-1,1.6-2.3,2.8-3.9,3.8c-1.6,0.9-3.4,1.4-5.4,1.4h-5c-0.2,0-0.3-0.1-0.4-0.2c-0.1-0.1-0.2-0.2-0.2-0.4v-2.2c0-0.8-0.3-1.4-0.8-1.9
		c-0.5-0.5-1.2-0.8-2-0.8h-2.2c-0.2,0-0.3-0.1-0.4-0.2c-0.1-0.1-0.2-0.2-0.2-0.4v-11v-4.4c0-0.2,0.1-0.3,0.2-0.4
		c0.1-0.1,0.2-0.2,0.4-0.2h4.4c0.2,0,0.3,0.1,0.4,0.2c0.1,0.1,0.2,0.2,0.2,0.4v9.8h0v5.4c0,0.2,0.1,0.4,0.2,0.6
		c0.2,0.2,0.4,0.2,0.6,0.2h4.7c1,0,1.8-0.2,2.6-0.7c0.8-0.4,1.4-1,2-1.8c0.5-0.7,0.8-1.6,0.9-2.5c0,0,0,0,0,0v0
		c0-0.1,0.1-0.2,0.1-0.3c0.1-0.1,0.1-0.1,0.2-0.1s0.1,0,0.2,0H67.5z"/>
	<path class="st2" d="M93,9.6c0.2,0,0.3,0.1,0.4,0.2c0.1,0.1,0.2,0.2,0.2,0.4v4.4c0,0.2-0.1,0.3-0.2,0.4c-0.1,0.1-0.2,0.2-0.4,0.2
		h-6.9c-0.2,0-0.4,0.1-0.6,0.2c-0.2,0.2-0.2,0.4-0.2,0.6v15.1c0,0.2-0.1,0.3-0.2,0.4s-0.2,0.2-0.4,0.2h-4.4c-0.2,0-0.3-0.1-0.4-0.2
		s-0.2-0.2-0.2-0.4V15.9c0-0.2-0.1-0.4-0.2-0.6c-0.2-0.2-0.4-0.2-0.6-0.2H72c-0.2,0-0.3-0.1-0.4-0.2c-0.1-0.1-0.2-0.2-0.2-0.4v-4.4
		c0-0.2,0.1-0.3,0.2-0.4c0.1-0.1,0.2-0.2,0.4-0.2h8.3h4.4H93z"/>
	<path class="st2" d="M119.1,14.2c0,0.2-0.1,0.4-0.2,0.6c-0.2,0.2-0.4,0.2-0.6,0.2h-14.9c-0.2,0-0.4,0.1-0.6,0.2
		c-0.2,0.2-0.2,0.4-0.2,0.6V17c0,0.2,0.1,0.4,0.2,0.6c0.2,0.2,0.4,0.2,0.6,0.2h8.8c1.3,0,2.4,0.3,3.5,0.9c1,0.6,1.9,1.5,2.5,2.5
		c0.6,1,0.9,2.2,0.9,3.5c0,1.3-0.3,2.4-0.9,3.5c-0.6,1-1.4,1.9-2.5,2.5c-1,0.6-2.2,0.9-3.5,0.9H97.9c-0.2,0-0.4-0.1-0.6-0.2
		C97.1,31.2,97,31,97,30.8v-3.9c0-0.2,0.1-0.4,0.2-0.6c0.2-0.2,0.4-0.2,0.6-0.2h7.6h6.7c0.4,0,0.7-0.1,1-0.4c0.3-0.3,0.4-0.6,0.4-1
		c0-0.4-0.1-0.7-0.4-1c-0.3-0.3-0.6-0.4-1-0.4h-6.7h-2.1c-0.2,0-0.4-0.1-0.6-0.2c-0.2-0.2-0.2-0.4-0.2-0.6v-1.9
		c0-0.8-0.3-1.4-0.8-1.9c-0.5-0.5-1.2-0.8-1.9-0.8h-1.9c-0.2,0-0.4-0.1-0.6-0.2C97.1,17.4,97,17.2,97,17v-6.6c0-0.2,0.1-0.4,0.2-0.6
		c0.2-0.2,0.4-0.2,0.6-0.2h4.7h15.7c0.2,0,0.4,0.1,0.6,0.2c0.2,0.2,0.2,0.4,0.2,0.6V14.2z"/>
	<path class="st2" d="M139.2,11.1c1.7,1,3,2.3,4,4c1,1.7,1.5,3.5,1.5,5.5c0,2-0.5,3.9-1.5,5.6s-2.3,3-4,4c-1.7,1-3.5,1.5-5.5,1.5h-5
		c-0.2,0-0.3-0.1-0.4-0.2s-0.2-0.2-0.2-0.4v-2.2c0-0.8-0.3-1.4-0.8-2c-0.5-0.5-1.2-0.8-1.9-0.8h-2.2c-0.2,0-0.3-0.1-0.4-0.2
		s-0.2-0.2-0.2-0.4V15.1v-5c0-0.2,0.1-0.3,0.2-0.4c0.1-0.1,0.2-0.2,0.4-0.2h5h5.5C135.7,9.6,137.6,10.1,139.2,11.1z M133.6,26.1
		c1,0,1.9-0.2,2.8-0.7c0.8-0.5,1.5-1.1,2-2c0.5-0.8,0.8-1.8,0.8-2.8c0-1-0.2-2-0.7-2.8c-0.5-0.8-1.2-1.5-2-2
		c-0.8-0.5-1.8-0.8-2.8-0.8H129c-0.2,0-0.4,0.1-0.6,0.2c-0.2,0.2-0.2,0.4-0.2,0.6v9.4c0,0.2,0.1,0.4,0.2,0.6
		c0.2,0.2,0.4,0.2,0.6,0.2H133.6z"/>
</g>
</svg>
